<svg width="58" height="67" viewBox="0 0 58 67" fill="none" xmlns="http://www.w3.org/2000/svg">
<path d="M27.2304 58.0247C25.8813 53.4802 23.42 49.344 20.0695 45.9904C16.7189 42.6368 12.5849 40.1718 8.04167 38.8185C12.5846 37.4628 16.7181 34.9963 20.0684 31.642C23.4187 28.2876 25.8802 24.1512 27.2304 19.6066C28.4296 23.6225 30.4978 27.3253 33.2884 30.4522C36.0789 33.5792 39.5234 36.0538 43.3775 37.7004C44.4378 37.2542 45.498 36.8313 46.5525 36.4142C41.285 34.727 36.6887 31.4123 33.4248 26.947C30.1609 22.4816 28.3978 17.096 28.3892 11.5649H26.0717C26.0579 18.4754 23.3067 25.0988 18.4202 29.9852C13.5338 34.8716 6.91041 37.6229 0 37.6366L0 39.9541C6.91088 39.9664 13.5352 42.7171 18.4219 47.6039C23.3087 52.4906 26.0594 59.1149 26.0717 66.0258H28.3892C28.4011 64.5589 28.5367 63.0956 28.7947 61.6516C28.1031 60.529 27.5854 59.3081 27.2594 58.0305C27.2594 58.0305 27.2304 58.0189 27.2304 58.0247Z" fill="#014C37"/>
<path d="M10.0868 23.303H12.4043C12.4059 20.6298 13.4685 18.0666 15.3587 16.1763C17.2489 14.2861 19.8122 13.2235 22.4854 13.222V10.9045C19.8117 10.9014 17.2484 9.83752 15.3583 7.94636C13.4683 6.05521 12.4059 3.49135 12.4043 0.817627H10.0868C10.0838 3.49188 9.02008 6.05573 7.12909 7.94672C5.2381 9.8377 2.67426 10.9014 0 10.9045L0 13.222C2.67372 13.2235 5.23759 14.2859 7.12874 16.176C9.01989 18.066 10.0838 20.6293 10.0868 23.303ZM11.2456 6.03197C12.4791 8.68472 14.6057 10.8195 17.2537 12.0632C14.609 13.3003 12.4827 15.4266 11.2456 18.0713C10.0019 15.4233 7.86709 13.2967 5.21434 12.0632C7.87043 10.8231 10.0055 8.68805 11.2456 6.03197Z" fill="#014C37"/>
<path d="M57.7638 41.6284C57.2391 42.0139 56.6508 42.3041 56.0256 42.4859C55.5216 42.6423 55.0117 42.7582 54.5193 42.8625C54.0268 42.9668 53.6213 43.0595 53.1983 43.1869C52.9144 43.2738 52.6189 43.3781 52.364 43.4766L51.9585 43.6215L51.6688 44.1081C51.1403 45.0455 50.56 45.9526 49.9307 46.8254C49.5946 47.2657 49.2296 47.6886 48.853 48.0942C51.043 47.8839 53.2471 47.8645 55.4405 48.0363C56.2168 48.071 57.0048 48.1116 57.7927 48.129C58.0786 45.9709 58.0689 43.7839 57.7638 41.6284Z" fill="#014C37"/>
<path d="M52.9198 42.0688C53.3775 41.9298 53.8468 41.8313 54.2987 41.7328C54.7506 41.6343 55.2489 41.5242 55.7008 41.3794C56.3984 41.187 57.0284 40.8038 57.52 40.2728C57.2127 38.8017 56.7525 37.3667 56.1469 35.9912C55.5055 37.6067 54.7141 39.1585 53.7831 40.6262L52.9198 42.0688Z" fill="#014C37"/>
<path d="M49.5479 43.8822C49.6174 44.2704 49.6811 44.6644 49.7448 45.0409C50.0809 44.5311 50.3937 44.0039 50.7066 43.4882L52.7923 40.012C53.6578 38.6464 54.3985 37.2057 55.0055 35.7073C53.1226 36.53 51.1353 37.3121 49.2118 38.0595L48.7947 38.2217C48.9279 39.6296 49.1017 41.0317 49.3161 42.4164C49.3856 42.9147 49.4725 43.3955 49.5479 43.8822Z" fill="#014C37"/>
<path d="M47.508 49.4849L46.9286 50.0643L42.9252 53.9461C45.2774 53.7317 47.647 53.5927 49.9993 53.5405C51.4714 53.4522 52.9486 53.5633 54.3909 53.8708L54.6343 53.9345C55.129 54.1236 55.6665 54.1718 56.187 54.0735C56.8294 52.538 57.3034 50.9373 57.6006 49.2995C56.859 49.2995 56.1174 49.2474 55.3874 49.2068C52.6412 49.0562 50.0398 48.9345 47.508 49.4849Z" fill="#014C37"/>
<path d="M43.7655 45.6088C44.2474 47.1813 44.6248 48.7838 44.8952 50.406L46.1235 49.2125C47.0652 48.3336 47.9514 47.3971 48.777 46.4084C48.6669 45.6262 48.5395 44.8383 48.4062 44.0909C48.3251 43.6042 48.244 43.1118 48.1687 42.6251C47.9601 41.3273 47.7979 40.0063 47.6704 38.6912C45.9323 39.3806 44.1362 40.0932 42.4039 40.8754L43.7655 45.6088Z" fill="#014C37"/>
<path d="M32.5658 54.3341C32.3282 53.5925 32.0849 52.822 31.8763 52.0572C31.7025 51.4373 31.5519 50.8174 31.407 50.1916C31.3259 49.8556 31.2448 49.5196 31.1579 49.1777C29.9073 51.0668 29.3217 53.3187 29.4938 55.5776C29.6659 57.8366 30.5857 59.9738 32.1081 61.6516C32.6559 61.1571 33.2366 60.7002 33.8462 60.2843C33.8172 58.2681 33.2147 56.3561 32.5658 54.3341Z" fill="#014C37"/>
<path d="M41.5583 60.9099C39.8202 60.3306 38.0821 59.6817 36.344 59.9076C35.979 60.1741 35.6024 60.4349 35.2258 60.6956C34.413 61.2191 33.6385 61.8 32.9083 62.4337C34.0928 63.5339 35.4966 64.3711 37.0277 64.8902C40.8631 66.2054 44.9998 65.4696 48.8121 62.9493C46.5147 62.4693 44.2505 61.8423 42.0334 61.0722L41.5583 60.9099Z" fill="#014C37"/>
<path d="M54.1081 54.9774C52.7758 54.696 51.4115 54.5966 50.0525 54.6819C47.2425 54.7456 44.4094 54.9252 41.6168 55.2149L40.4291 56.3737C39.6064 57.179 38.7605 57.9901 37.8683 58.7491C39.2749 58.9405 40.6526 59.3044 41.9702 59.8325L42.4395 60.0005C44.9446 60.8732 47.5104 61.5606 50.1162 62.0573C50.8839 61.4523 51.6116 60.7982 52.2946 60.099C53.6441 58.6725 54.7658 57.0467 55.6202 55.2787C55.1844 55.2441 54.7534 55.1645 54.334 55.0411L54.1081 54.9774Z" fill="#014C37"/>
<path d="M32.0276 47.9436C32.213 48.6041 32.3752 49.2704 32.5316 49.9251C32.6881 50.5798 32.8271 51.1418 32.9893 51.7501C33.1979 52.4917 33.4355 53.2507 33.673 53.9865C34.3128 55.7597 34.7463 57.6007 34.965 59.4731C35.2837 59.2529 35.6023 59.0386 35.9094 58.8126C36.8912 58.0639 37.8258 57.2551 38.7077 56.3908C38.6498 54.5021 37.8966 52.7234 37.0913 50.8521C36.286 48.9807 35.4459 47.005 35.3532 44.8903C35.3561 44.846 35.3561 44.8015 35.3532 44.7571C34.107 45.6656 32.9885 46.7374 32.0276 47.9436Z" fill="#014C37"/>
<path d="M43.847 51.4198C43.6241 49.5548 43.2225 47.7156 42.6477 45.9274L41.3383 41.3735C40.3128 41.8544 39.3047 42.3585 38.3314 42.9031C37.8389 43.1754 37.358 43.4824 36.883 43.749L36.5295 43.9807C36.5295 44.2762 36.5295 44.5601 36.5295 44.8671C36.5991 46.7675 37.358 48.5404 38.1634 50.4175C38.9195 51.9943 39.4649 53.6637 39.7856 55.3827L43.847 51.4198Z" fill="#014C37"/>
<path d="M20.7994 37.6423C23.5977 35.6258 26.0097 33.1216 27.9198 30.2496L25.9152 29.0908C23.9739 31.9767 21.4788 34.4482 18.5746 36.3619L20.7994 37.6423Z" fill="#014C37"/>
</svg>
