<svg width="49" height="67" viewBox="0 0 49 67" fill="none" xmlns="http://www.w3.org/2000/svg">
<path d="M7.65721 46.5543C7.67222 43.2077 8.68703 39.942 10.5714 37.1763L11.6687 35.3774L11.7226 35.2935L27.2648 10.1094L42.3273 34.508C43.0908 34.1962 43.8343 33.8784 44.5578 33.5546L27.2648 5.52832L8.55065 35.8511L8.50867 35.9231C8.23285 36.3308 7.98101 36.7506 7.74116 37.1703L7.48932 37.638V37.68C6.04143 40.414 5.28391 43.4606 5.28271 46.5543C5.28271 55.4227 11.4768 62.9839 20.0813 65.7422C18.9464 64.644 18.0039 63.3629 17.2931 61.9526C11.5188 58.8286 7.65721 53.0962 7.65721 46.5543Z" fill="#014C37"/>
<path d="M16.0039 14.8946C16.0029 13.5103 15.585 12.1584 14.8046 11.015L11.3928 5.51051L7.99893 0L4.59909 5.51051L1.19924 11.021C0.419637 12.1625 0.00175548 13.5123 0 14.8946C0 18.954 3.59772 22.2459 8.00493 22.2459C12.4121 22.2459 16.0039 18.954 16.0039 14.8946ZM2.39848 14.8946C2.40461 13.9911 2.6802 13.1101 3.18998 12.3642L5.34861 8.88038L5.49852 8.62254L6.64379 6.76971L7.99893 4.56911L9.36007 6.76971L12.7539 12.2742L12.7839 12.3162L12.8139 12.3582C13.3248 13.1058 13.6004 13.9891 13.6054 14.8946C13.6054 17.6288 11.093 19.8474 8.00493 19.8474C4.91689 19.8474 2.39848 17.6288 2.39848 14.8946Z" fill="#014C37"/>
<path d="M47.8257 42.2373C47.2827 42.6362 46.6738 42.9366 46.0268 43.1247C45.5111 43.2866 44.9835 43.4066 44.4678 43.5145C43.9521 43.6224 43.5444 43.7184 43.1007 43.8503C42.8128 43.9402 42.501 44.0482 42.2432 44.1501L41.8235 44.3L41.5237 44.8037C40.9746 45.7725 40.3741 46.7112 39.7248 47.6159C39.377 48.0716 38.9933 48.5093 38.6095 48.9291C40.876 48.7114 43.1572 48.6913 45.4272 48.8691C46.2307 48.9051 47.0402 48.9471 47.8257 48.965C48.1345 46.7331 48.1345 44.4693 47.8257 42.2373Z" fill="#014C37"/>
<path d="M42.8134 42.6928C43.2931 42.5489 43.7787 42.447 44.2464 42.3451C44.7142 42.2431 45.2298 42.1292 45.6975 41.9793C46.4189 41.7788 47.0705 41.3823 47.5803 40.834C47.2688 39.3113 46.7964 37.8259 46.1712 36.4028C45.5122 38.0758 44.695 39.6821 43.7308 41.1998L42.8134 42.6928Z" fill="#014C37"/>
<path d="M38.5443 38.7234C38.6822 40.1805 38.8561 41.6316 39.084 43.0647C39.1619 43.5684 39.2459 44.0661 39.3298 44.5697C39.4018 44.9715 39.4677 45.3792 39.5337 45.769C39.8755 45.2413 40.2053 44.6957 40.5231 44.162L42.6817 40.5643C43.5765 39.1547 44.3431 37.6676 44.9722 36.1211C43.0235 36.9726 40.9728 37.776 38.976 38.5556L38.5443 38.7234Z" fill="#014C37"/>
<path d="M37.1761 50.368L36.5765 50.9316L32.4271 54.9491C34.8616 54.7272 37.32 54.5833 39.7545 54.5294C41.278 54.4379 42.8069 54.5529 44.2996 54.8711L44.5514 54.9371C45.0634 55.1332 45.6198 55.183 46.1584 55.081C46.8233 53.4918 47.3139 51.8352 47.6215 50.1401C46.848 50.1401 46.0805 50.0862 45.325 50.0442C42.5247 49.9243 39.8384 49.7984 37.1761 50.368Z" fill="#014C37"/>
<path d="M35.7855 50.0864C36.7582 49.1767 37.6733 48.2074 38.5257 47.1842C38.4178 46.3747 38.2799 45.5592 38.148 44.7857L37.8961 43.2687C37.6863 41.9255 37.5184 40.5584 37.3865 39.1973C35.5576 39.9108 33.7288 40.6483 31.9359 41.4578L33.339 46.3747C33.8434 48.0006 34.2341 49.6595 34.5083 51.3396L35.7855 50.0864Z" fill="#014C37"/>
<path d="M21.7545 55.3869C21.5086 54.6194 21.2568 53.8219 21.0349 53.0304C20.861 52.3888 20.7051 51.7472 20.5492 51.0996C20.4713 50.7518 20.3813 50.4041 20.2974 50.0503C18.999 52.0039 18.3906 54.3354 18.5687 56.6743C18.7469 59.0133 19.7014 61.2257 21.2808 62.9601C21.8477 62.4483 22.4487 61.9755 23.0796 61.545C23.0496 59.4583 22.42 57.4796 21.7545 55.3869Z" fill="#014C37"/>
<path d="M31.0545 62.1927C29.2856 61.5931 27.4568 60.9215 25.6579 61.1553L24.5007 61.9708C23.6596 62.5129 22.8581 63.114 22.1022 63.7697C23.3325 64.9172 24.7915 65.7918 26.3835 66.336C30.347 67.6972 34.6342 66.9357 38.5797 64.3273C36.1975 63.8232 33.8501 63.1662 31.5522 62.3606L31.0545 62.1927Z" fill="#014C37"/>
<path d="M44.0483 56.0523C42.6693 55.7619 41.2574 55.659 39.8509 55.7465C36.9487 55.8124 34.0106 55.9983 31.1204 56.2981L29.9212 57.4974C29.0637 58.3308 28.1943 59.1703 27.2709 59.9558C28.7247 60.1539 30.1485 60.5305 31.5102 61.0771L32.0019 61.251C34.5943 62.1549 37.2498 62.8664 39.9469 63.3796C40.7414 62.7535 41.4945 62.0765 42.2014 61.3529C43.5917 59.8753 44.7465 58.1927 45.6253 56.3641C45.1723 56.3284 44.7242 56.246 44.2881 56.1182L44.0483 56.0523Z" fill="#014C37"/>
<path d="M21.1963 48.7733C21.3882 49.4568 21.5561 50.1464 21.718 50.824C21.8799 51.5015 22.0178 52.0832 22.1917 52.7128C22.4015 53.4803 22.6534 54.2658 22.8992 55.0273C23.5613 56.8625 24.01 58.7679 24.2364 60.7057C24.5662 60.4778 24.8959 60.256 25.2137 60.0221C26.2286 59.2456 27.1958 58.4087 28.1099 57.5157C28.05 55.561 27.2704 53.7201 26.437 51.7834C25.6035 49.8466 24.7281 47.8019 24.6381 45.6133V45.4753C23.3484 46.4157 22.1908 47.5249 21.1963 48.7733Z" fill="#014C37"/>
<path d="M33.4239 52.3708C33.1923 50.4413 32.7788 48.538 32.1887 46.6864L30.8336 41.9734C29.7722 42.4711 28.7289 42.9927 27.7155 43.5564C27.2118 43.8382 26.7082 44.156 26.2225 44.4318L25.8507 44.6717C25.8507 44.9775 25.8507 45.2713 25.8507 45.5891C25.9227 47.5559 26.7082 49.3907 27.5416 51.3335C28.3215 52.9664 28.8859 54.6938 29.2206 56.4722L33.4239 52.3708Z" fill="#014C37"/>
<path d="M20.0411 27.4419L14.3958 37.2201L16.4781 38.4223L22.1234 28.6441L20.0411 27.4419Z" fill="#014C37"/>
</svg>
