<svg width="53" height="67" viewBox="0 0 53 67" fill="none" xmlns="http://www.w3.org/2000/svg">
<path d="M13.1739 17.0319C14.435 17.7677 15.8701 18.1523 17.3301 18.1458C19.703 18.0728 21.9988 17.2859 23.9177 15.888C28.7086 12.6421 31.1041 5.827 29.6309 0C28.0858 0.353333 26.4449 0.634802 24.8399 0.910282C22.1893 1.30417 19.5683 1.87639 16.9947 2.62305C16.6354 2.73684 16.2821 2.8626 15.9287 2.98836C12.072 4.40169 9.70049 6.97684 9.42501 10.049C9.32882 11.4479 9.62966 12.8455 10.2929 14.0809C10.9562 15.3162 11.9548 16.3392 13.1739 17.0319ZM11.7965 10.2646C11.9762 8.15062 13.7728 6.31808 16.7672 5.24011C17.0846 5.12633 17.4079 5.01254 17.7433 4.90475C20.2035 4.19372 22.7083 3.64754 25.2412 3.26983C26.0317 3.13209 26.8342 2.99435 27.6366 2.84463C27.8882 7.13853 25.9119 11.6181 22.5522 13.9117C21.0312 15.031 19.2109 15.6712 17.3241 15.7503C16.2877 15.7622 15.2674 15.4932 14.3717 14.9717C13.5434 14.5085 12.8625 13.8212 12.407 12.9886C11.9515 12.156 11.74 11.212 11.7965 10.2646Z" fill="#014C37"/>
<path d="M42.3689 43.1847C41.8538 43.3464 41.3208 43.4602 40.8118 43.5739C40.3028 43.6877 39.8896 43.7716 39.4464 43.9093C39.1589 43.9991 38.8475 44.1009 38.59 44.2087L38.1708 44.3585L37.8714 44.8615C37.3132 45.8278 36.7034 46.7634 36.0448 47.6642C35.6975 48.1253 35.3142 48.5565 34.9309 48.9817C37.1946 48.7654 39.4726 48.7433 41.7401 48.9159C42.5425 48.9578 43.351 48.9937 44.1355 49.0177C44.444 46.7885 44.444 44.5275 44.1355 42.2983C43.6009 42.6913 43.0035 42.991 42.3689 43.1847Z" fill="#014C37"/>
<path d="M40.5613 42.4C41.0482 42.305 41.5299 42.185 42.0046 42.0407C42.7264 41.8397 43.379 41.4439 43.891 40.8968C43.575 39.3751 43.0971 37.8914 42.4657 36.4712C41.8051 38.141 40.989 39.745 40.0283 41.2622L39.13 42.7593C39.6091 42.6096 40.1241 42.5198 40.5613 42.4Z" fill="#014C37"/>
<path d="M34.8651 38.7888C35.0029 40.2381 35.1765 41.6933 35.4041 43.1246C35.4819 43.6217 35.5658 44.1247 35.6496 44.6218C35.7155 45.023 35.7874 45.4363 35.8532 45.8195C36.1946 45.2865 36.524 44.7476 36.8414 44.2146L38.9973 40.6213C39.9019 39.216 40.6795 37.733 41.3209 36.1897C39.3686 37.0401 37.3205 37.8426 35.3322 38.6211L34.8651 38.7888Z" fill="#014C37"/>
<path d="M33.5358 50.4368L32.9369 50.9937L28.7927 55.0062C31.2241 54.7906 33.6795 54.6468 36.1109 54.5869C37.6328 54.5007 39.1593 54.6175 40.6503 54.9343L40.9019 54.9942C41.4107 55.1912 41.9643 55.243 42.5009 55.1439C43.1696 53.5578 43.6616 51.903 43.9681 50.2092C43.1955 50.2092 42.429 50.1493 41.6744 50.1134C38.8418 49.9756 36.1588 49.8499 33.5358 50.4368Z" fill="#014C37"/>
<path d="M30.8343 51.3652L32.1039 50.1675C33.0773 49.259 33.9933 48.291 34.8467 47.2689C34.7389 46.4605 34.6012 45.646 34.4694 44.8735L34.2179 43.3583C34.0083 42.0109 33.8406 40.6514 33.7089 39.292C31.9123 40.0046 30.0558 40.7413 28.2651 41.5437L29.6665 46.4605C30.1681 48.0666 30.5583 49.7054 30.8343 51.3652Z" fill="#014C37"/>
<path d="M16.8932 51.1496L16.6416 50.1016C15.3528 52.049 14.7496 54.3704 14.9275 56.6989C15.1054 59.0274 16.0541 61.2302 17.6238 62.9593C18.1915 62.4499 18.7917 61.9778 19.4204 61.546C19.4204 59.4918 18.7676 57.5156 18.1029 55.4315C17.8573 54.6649 17.5998 53.8685 17.3842 53.0779C17.2046 52.4372 17.0489 51.7964 16.8932 51.1496Z" fill="#014C37"/>
<path d="M27.3861 62.2287C25.6194 61.6298 23.7929 60.9591 21.9962 61.1926C21.613 61.4681 21.2297 61.7376 20.8404 62.0011C20.0018 62.5445 19.2014 63.1448 18.4449 63.7977C19.6755 64.9297 21.1274 65.7943 22.7089 66.3369C26.6674 67.6963 30.9494 66.9358 34.8899 64.3307C32.5107 63.8291 30.1663 63.175 27.8712 62.3724L27.3861 62.2287Z" fill="#014C37"/>
<path d="M40.3632 56.0961C38.9761 55.8044 37.5561 55.6997 36.1412 55.7847C33.2427 55.8506 30.3082 56.0422 27.4217 56.3417L26.2239 57.5394C25.3675 58.3659 24.4932 59.2043 23.5769 59.9948C25.019 60.1876 26.4325 60.5536 27.787 61.0847L28.278 61.2584C30.867 62.1631 33.5192 62.8757 36.2131 63.3904C37.0066 62.7651 37.7588 62.0889 38.4648 61.3662C39.8664 59.8999 41.032 58.2251 41.9203 56.4016C41.4699 56.3653 41.0244 56.283 40.5908 56.156L40.3632 56.0961Z" fill="#014C37"/>
<path d="M17.5396 48.8199C17.7312 49.5086 17.8989 50.1973 18.0606 50.874C18.2223 51.5508 18.36 52.1317 18.5337 52.7545C18.7433 53.527 18.9948 54.3116 19.2403 55.0661C19.8995 56.9018 20.3475 58.8064 20.5758 60.7434C20.9052 60.5159 21.2346 60.2943 21.552 60.0607C22.5657 59.2832 23.5316 58.4452 24.4445 57.5514C24.3786 55.6051 23.6061 53.7666 22.7737 51.8322C21.9412 49.8979 21.0669 47.8498 20.9771 45.6639V45.5142C19.6881 46.4568 18.5318 47.5687 17.5396 48.8199Z" fill="#014C37"/>
<path d="M24.0505 43.5919C23.5474 43.8734 23.0444 44.1908 22.5593 44.4662L22.188 44.7058C22.188 45.0112 22.188 45.3047 22.188 45.6221C22.2599 47.5864 23.0444 49.4189 23.8768 51.3592C24.6548 52.9884 25.2184 54.7115 25.5536 56.4856L29.7457 52.4192C29.5144 50.4921 29.1014 48.5912 28.5121 46.7419L27.1586 42.0049C26.1046 42.5199 25.0626 43.029 24.0505 43.5919Z" fill="#014C37"/>
<path d="M47.0703 45.2687C47.1009 46.7529 47.0087 48.2372 46.7948 49.7063C46.711 50.3052 46.6032 50.904 46.4774 51.5029C53.7896 39.9687 54.9275 23.7812 48.7412 11.1211C44.8006 12.9177 40.5426 14.5886 36.4284 16.2055C29.6372 18.8705 22.6544 21.5953 16.3243 25.1886C15.42 25.6976 14.5277 26.2186 13.6534 26.7636C4.08941 32.6565 -0.845281 40.8789 0.1189 49.2871C0.688619 53.8837 2.87257 58.1285 6.28127 61.2645L3.3528 64.678L5.17935 66.2411L8.12579 62.7916C9.92704 64.1397 11.93 65.1948 14.0606 65.9177C15.3304 66.3548 16.6373 66.6755 17.9652 66.8759C16.7234 65.9725 15.6338 64.8768 14.7373 63.63C12.9381 63.0055 11.2425 62.1153 9.70681 60.989L12.3838 57.8569C12.3838 57.6832 12.3239 57.5156 12.3059 57.3419C12.1801 56.3036 12.1801 55.254 12.3059 54.2158L7.83235 59.4559C4.88167 56.7096 2.9925 53.0119 2.49641 49.0116C1.64602 41.5676 6.17348 34.1836 14.917 28.7458C15.7434 28.2308 16.6118 27.7218 17.4981 27.2247C23.6725 23.7752 30.6014 21.0563 37.3267 18.4153C40.1234 17.3074 43.0279 16.1696 45.8426 14.9718L23.9539 40.5735C25.6547 39.6932 27.4094 38.8967 29.1821 38.178L48.1722 15.96C51.4286 25.5316 51.0362 35.9686 47.0703 45.2687Z" fill="#014C37"/>
<path d="M8.7783 43.1665C10.0371 40.1546 11.9259 37.447 14.3178 35.2255L13.5633 32.6624C10.6649 35.1537 8.34869 38.2509 6.77808 41.7352L8.7783 43.1665Z" fill="#014C37"/>
</svg>
