<svg width="54" height="69" viewBox="0 0 54 69" fill="none" xmlns="http://www.w3.org/2000/svg">
<path d="M21.8709 52.7136H10.1827V55.1525H21.3404C21.4414 54.3249 21.619 53.5084 21.8709 52.7136Z" fill="#014C37"/>
<path d="M53.7644 42.885C53.2123 43.2906 52.5932 43.5961 51.9353 43.7874C51.414 43.9467 50.8849 44.0789 50.3501 44.1837C49.8684 44.2873 49.4111 44.391 48.9599 44.5251C48.6673 44.6166 48.3502 44.7263 48.088 44.83L47.6612 44.9824L47.3564 45.4946C46.7995 46.4805 46.1888 47.4351 45.5272 48.3541C45.1675 48.8236 44.7834 49.2626 44.3871 49.6955C46.6938 49.4752 49.0151 49.4528 51.3256 49.6284C52.1365 49.665 52.9657 49.7077 53.7644 49.726C54.0784 47.4565 54.0784 45.1545 53.7644 42.885Z" fill="#014C37"/>
<path d="M48.6675 43.3668C49.1552 43.2144 49.6491 43.1107 50.1247 43.0071C50.6003 42.9034 51.1246 42.7876 51.5941 42.6351C52.3289 42.4342 52.9923 42.0307 53.5086 41.4706C53.1899 39.9212 52.7054 38.4106 52.0636 36.9648C51.391 38.6649 50.5602 40.2979 49.582 41.8425L48.6675 43.3668Z" fill="#014C37"/>
<path d="M44.3259 39.3244C44.4662 40.806 44.643 42.2815 44.8747 43.7387C44.9539 44.2508 45.0393 44.7569 45.1247 45.269C45.1917 45.6775 45.2649 46.0921 45.332 46.4885C45.6795 45.9519 46.0148 45.3971 46.338 44.8544L48.5329 41.1962C49.4431 39.7578 50.2245 38.2418 50.8681 36.666C48.8805 37.5257 46.7953 38.3488 44.771 39.1414L44.3259 39.3244Z" fill="#014C37"/>
<path d="M42.954 51.1833L42.3443 51.7565L38.1251 55.8415C40.6005 55.6159 43.0943 55.4696 45.5758 55.4147C47.1249 55.3218 48.6796 55.4387 50.1974 55.7623L50.4535 55.8293C50.972 56.0285 51.5357 56.0791 52.0814 55.9757C52.7622 54.3609 53.2632 52.6761 53.5752 50.9516C52.7887 50.9516 52.0082 50.8968 51.24 50.8602C48.3744 50.7139 45.6429 50.5858 42.954 51.1833Z" fill="#014C37"/>
<path d="M41.5151 50.8785C42.5061 49.9536 43.4387 48.968 44.3075 47.9275C44.1917 47.1044 44.0575 46.2752 43.9234 45.4887C43.8381 44.9765 43.7466 44.4643 43.6673 43.9461C43.4539 42.5803 43.2832 41.1963 43.143 39.8062C41.3139 40.5317 39.4237 41.2817 37.6068 42.1048L39.0213 47.0922C39.5452 48.7424 39.9527 50.4273 40.2408 52.1345L41.5151 50.8785Z" fill="#014C37"/>
<path d="M27.2545 56.2987C27.0045 55.5122 26.7423 54.7013 26.5228 53.8965C26.346 53.2502 26.1875 52.5917 26.029 51.9332C25.9436 51.5857 25.8583 51.2259 25.7668 50.8723C24.4575 52.8564 23.8457 55.2197 24.0278 57.5899C24.21 59.96 25.1757 62.2021 26.7728 63.9628C27.3504 63.4437 27.9614 62.963 28.602 62.5239C28.5715 60.4082 27.9313 58.3961 27.2545 56.2987Z" fill="#014C37"/>
<path d="M36.7104 63.1885C34.8813 62.5788 33.0521 61.902 31.223 62.1337L30.0463 62.9629C29.19 63.5127 28.3749 64.124 27.6074 64.7921C28.8563 65.9467 30.333 66.8273 31.9425 67.3772C35.9787 68.7613 40.3321 67.987 44.3501 65.3347C41.9251 64.8318 39.5343 64.176 37.1921 63.3715L36.7104 63.1885Z" fill="#014C37"/>
<path d="M49.9237 56.9451C48.5215 56.6499 47.0859 56.5453 45.6557 56.6342C42.7047 56.7013 39.7172 56.8903 36.7784 57.1951L35.5589 58.4145C34.687 59.2559 33.7969 60.1095 32.864 60.9083C34.3423 61.1097 35.7901 61.4926 37.1747 62.0484L37.6746 62.2252C40.302 63.1439 42.9942 63.8654 45.7289 64.3836C46.5383 63.7487 47.3042 63.0602 48.0214 62.3228C49.4519 60.8256 50.6426 59.1166 51.5516 57.2561C51.0931 57.2192 50.6396 57.1354 50.1981 57.0061L49.9237 56.9451Z" fill="#014C37"/>
<path d="M26.6869 49.5431C26.882 50.2382 27.0527 50.9393 27.2173 51.6283C27.382 52.3173 27.5222 52.9148 27.699 53.5489C27.9124 54.3293 28.1685 55.1281 28.4124 55.9024C29.0877 57.7683 29.5459 59.7057 29.7781 61.6763C30.1074 61.4508 30.4488 61.2191 30.7659 60.9813C31.8011 60.1934 32.7866 59.3422 33.7169 58.4327C33.6498 56.445 32.8572 54.5793 32.0158 52.6039C31.1744 50.6284 30.2781 48.5554 30.1866 46.3299V46.1897C28.8752 47.1458 27.6981 48.2737 26.6869 49.5431Z" fill="#014C37"/>
<path d="M39.119 53.2013C38.8829 51.2394 38.4623 49.3041 37.863 47.4212L36.485 42.6045C35.4058 43.1106 34.3449 43.641 33.3145 44.2141C32.7963 44.5068 32.2902 44.8238 31.7964 45.1104L31.4183 45.3482C31.4183 45.6652 31.4183 45.9579 31.4183 46.2871C31.4915 48.2809 32.2902 50.1466 33.1377 52.1221C33.9297 53.7829 34.5035 55.5392 34.8449 57.3473L39.119 53.2013Z" fill="#014C37"/>
<path d="M37.3022 6.60742H18.8889V9.05236H37.3022V6.60742Z" fill="#014C37"/>
<path d="M7.92624 16.0578C6.35858 16.0578 4.82612 15.5929 3.52266 14.722C2.2192 13.851 1.20327 12.6131 0.603352 11.1648C0.00343432 9.71647 -0.153532 8.12277 0.152304 6.58523C0.45814 5.04769 1.21304 3.63537 2.32154 2.52687C3.43005 1.41836 4.84237 0.663462 6.37991 0.357626C7.91745 0.0517906 9.51115 0.208757 10.9595 0.808675C12.4078 1.40859 13.6457 2.42452 14.5167 3.72798C15.3876 5.03144 15.8525 6.5639 15.8525 8.13156C15.8525 10.2337 15.0174 12.2498 13.5309 13.7363C12.0445 15.2227 10.0284 16.0578 7.92624 16.0578ZM7.92624 2.64417C6.84094 2.64417 5.78 2.966 4.87761 3.56896C3.97521 4.17192 3.27188 5.02894 2.85655 6.03163C2.44122 7.03432 2.33255 8.13765 2.54428 9.2021C2.75602 10.2666 3.27864 11.2443 4.04607 12.0117C4.81349 12.7792 5.79125 13.3018 6.8557 13.5135C7.92015 13.7253 9.02349 13.6166 10.0262 13.2013C11.0289 12.7859 11.8859 12.0826 12.4888 11.1802C13.0918 10.2778 13.4136 9.21687 13.4136 8.13156C13.4136 6.67622 12.8355 5.28047 11.8064 4.25139C10.7773 3.2223 9.38159 2.64417 7.92624 2.64417Z" fill="#014C37"/>
<path d="M19.6998 49.9151C18.9053 49.9139 18.1291 49.6772 17.4691 49.235C16.8092 48.7928 16.2952 48.1648 15.992 47.4305C15.6888 46.6962 15.6101 45.8885 15.7658 45.1095C15.9215 44.3305 16.3047 43.6152 16.8669 43.0538C17.429 42.4925 18.145 42.1105 18.9242 41.9559C19.7035 41.8014 20.511 41.8813 21.2449 42.1856C21.9787 42.4899 22.6059 43.0049 23.0471 43.6655C23.4884 44.3261 23.7239 45.1027 23.7239 45.8971C23.7222 46.9633 23.2976 47.9853 22.5431 48.7387C21.7886 49.492 20.766 49.9151 19.6998 49.9151ZM19.6998 44.318C19.3877 44.3192 19.083 44.4128 18.8241 44.5871C18.5652 44.7613 18.3638 45.0084 18.2452 45.297C18.1266 45.5857 18.0962 45.903 18.1578 46.2089C18.2194 46.5149 18.3703 46.7957 18.5914 47.0159C18.8125 47.2361 19.0939 47.3859 19.4 47.4464C19.7062 47.5068 20.0234 47.4752 20.3116 47.3555C20.5998 47.2358 20.846 47.0334 21.0193 46.7738C21.1925 46.5143 21.285 46.2092 21.285 45.8971C21.2834 45.4778 21.1157 45.0761 20.8186 44.7801C20.5214 44.4842 20.1191 44.318 19.6998 44.318Z" fill="#014C37"/>
<path d="M23.7726 29.2641V9.07654H32.4122V29.2641H34.851V6.6377H21.3337V29.2641H23.7726Z" fill="#014C37"/>
<path d="M24.2659 65.164C20.3389 64.3012 16.8189 62.1363 14.2773 59.0208C11.7358 55.9053 10.322 52.0222 10.2655 48.0019C10.209 43.9816 11.5131 40.0603 13.9661 36.8746C16.4191 33.689 19.8769 31.426 23.7781 30.4532V27.9473C18.9628 28.9969 14.695 31.7652 11.7733 35.7341C8.8515 39.703 7.47607 44.6005 7.90434 49.5102C8.3326 54.4199 10.5352 59.0054 14.1 62.4085C17.6648 65.8116 22.3475 67.7991 27.2718 67.9992C26.1415 67.2001 25.1296 66.2456 24.2659 65.164Z" fill="#014C37"/>
<path d="M42.363 37.0929L43.7714 36.5442L44.7164 36.1784C41.7971 31.984 37.4035 29.0448 32.4125 27.9473V30.4532C36.3938 31.4572 39.9077 33.8019 42.363 37.0929Z" fill="#014C37"/>
<path d="M28.095 37.2817C27.6667 37.2805 27.2476 37.4065 26.8908 37.6436C26.5341 37.8807 26.2557 38.2183 26.091 38.6137C25.9262 39.0091 25.8825 39.4445 25.9653 39.8647C26.0481 40.285 26.2538 40.6712 26.5562 40.9746C26.8587 41.2779 27.2444 41.4846 27.6644 41.5686C28.0844 41.6527 28.5199 41.6101 28.9158 41.4465C29.3117 41.2829 29.6501 41.0054 29.8882 40.6494C30.1263 40.2933 30.2534 39.8746 30.2534 39.4462C30.2534 38.8732 30.0262 38.3236 29.6216 37.9179C29.217 37.5121 28.668 37.2834 28.095 37.2817Z" fill="#014C37"/>
</svg>
