<svg width="96" height="91" viewBox="0 0 96 91" fill="none" xmlns="http://www.w3.org/2000/svg">
<path d="M7.63033 27.3473C11.061 19.8003 16.5871 13.4013 23.5491 8.91413C30.511 4.42693 38.6149 2.04096 46.8936 2.04096C55.1722 2.04096 63.2761 4.42693 70.2381 8.91413C77.2 13.4013 82.7261 19.8003 86.1568 27.3473H88.395C84.9007 19.2261 79.1081 12.3079 71.7327 7.44728C64.3573 2.58662 55.7221 -0.00366211 46.8936 -0.00366211C38.065 -0.00366211 29.4298 2.58662 22.0544 7.44728C14.679 12.3079 8.88644 19.2261 5.39209 27.3473H7.63033Z" fill="#8FB685"/>
<path d="M56.0932 47.7904C56.0525 47.556 56.0118 47.2808 55.9558 47.0617C55.9095 46.8426 55.8501 46.6265 55.7778 46.4146C55.678 46.0819 55.5591 45.7552 55.4217 45.4363C54.9663 44.3985 54.3556 43.4363 53.6108 42.5828C53.2089 42.1089 52.7663 41.6401 52.3441 41.1917L51.9575 40.7739L50.9401 39.714C50.5281 39.2809 50.1262 38.8478 49.7193 38.4147L49.47 38.1446C48.9613 37.579 48.3967 36.9982 47.8931 36.402C47.5167 35.9638 47.2623 35.6377 46.9673 35.2606C46.835 35.0975 46.5756 34.7511 46.4586 34.5778L46.4026 34.5014L46.8045 34.3485C46.9263 34.3033 47.0452 34.2505 47.1606 34.1906C48.0743 33.7434 48.946 33.2147 49.7651 32.611L50.2738 32.2237C51.0469 31.617 51.7317 30.9053 52.3085 30.1091C52.8872 29.3618 53.3063 28.5033 53.5395 27.5868C53.7895 26.5968 53.9244 25.5812 53.9414 24.5601C53.9349 23.5474 53.9858 22.5352 54.094 21.5283C54.1431 21.1261 54.2196 20.7277 54.3229 20.336C54.4867 19.7064 54.6923 19.0884 54.9384 18.4863C55.0815 18.1811 55.2518 17.8895 55.4471 17.615L55.6964 17.2074L56.022 16.6672C55.7768 16.7272 55.5356 16.802 55.2996 16.8914L53.977 17.401C52.8884 17.8545 52.0491 18.1602 50.6604 18.8124C49.3197 19.4512 48.029 20.1905 46.7994 21.0239C46.2907 21.4009 45.6294 21.8289 45.0241 22.3028L44.9834 22.3334C44.4351 22.7403 43.9244 23.1956 43.4573 23.6939C42.6275 24.61 42.0047 25.6945 41.6311 26.8735C41.4679 27.3378 41.362 27.8203 41.3157 28.3104V28.5142C41.2813 29.1848 41.3274 29.8571 41.4531 30.5167C41.4887 30.7002 41.5192 30.8785 41.5599 31.067C41.6209 31.3473 41.7023 31.5766 41.7735 31.8314C42.0316 32.6114 42.3727 33.3613 42.7909 34.0683C43.2987 34.9318 43.8772 35.7516 44.5205 36.5192C44.6527 36.6771 44.8816 36.9268 45.0292 37.0746C45.5379 37.6147 46.0465 38.1905 46.6366 38.7153C47.2267 39.2402 47.944 39.8873 48.59 40.4376L49.3785 41.1102L50.1262 41.7828C50.8028 42.3688 51.4794 42.9599 52.161 43.5357C53.1728 44.3635 54.0769 45.3153 54.852 46.3687C55.03 46.6235 55.2894 47.0566 55.437 47.3267C55.5845 47.5967 55.8236 48.0197 55.8236 48.0248C55.9304 48.1878 56.2 48.7076 56.2 48.7076C56.2 48.7076 56.139 48.0299 56.0932 47.7904ZM45.0699 32.4785C44.7996 32.1292 44.5803 31.7432 44.4187 31.332C44.2826 30.9834 44.1837 30.6213 44.1237 30.2518C44.0728 29.9613 44.0372 29.4008 44.022 29.0645C44.1129 28.1463 44.4273 27.2645 44.9376 26.4964C45.7654 25.3267 46.8145 24.3312 48.0254 23.5665C49.1473 22.7666 50.3216 22.0431 51.5404 21.4009C51.5404 21.5487 51.5404 21.6965 51.4997 21.8442C51.4997 22.1143 51.4488 22.3895 51.4336 22.6595C51.4336 23.0264 51.4336 23.3933 51.398 23.7601C51.398 24.3206 51.3624 24.9015 51.3217 25.4671C51.3328 26.3914 51.1087 27.3033 50.6705 28.1168C50.1213 29.0524 49.3575 29.8436 48.4425 30.425L47.8524 30.8785C46.9745 31.4941 46.0433 32.0296 45.0699 32.4785Z" fill="#8FB685"/>
<path d="M52.4764 55.5761C52.4198 55.3163 52.3502 55.0595 52.2678 54.8067C52.0073 54.0276 51.6664 53.2779 51.2504 52.5698C50.7414 51.707 50.163 50.8874 49.5209 50.1189C49.3886 49.9609 49.1597 49.7163 49.0122 49.5635C48.5035 49.0234 47.9948 48.4476 47.4047 47.9227C46.8146 47.3979 46.0974 46.7508 45.4463 46.2056L44.6629 45.5279L43.8999 44.8756C43.2233 44.2897 42.5467 43.6986 41.8651 43.1228C40.8471 42.2962 39.9408 41.3404 39.169 40.2795C38.9557 39.9708 38.7588 39.651 38.579 39.3216C38.4162 39.0209 38.1974 38.6286 38.1924 38.6235C38.0906 38.4604 37.8159 37.9458 37.8159 37.9458C37.8159 37.9458 37.8821 38.6133 37.9227 38.8528C37.9634 39.0923 38.0092 39.3623 38.0601 39.5763C38.111 39.7904 38.1669 40.0044 38.2381 40.2286C38.3397 40.5613 38.4603 40.888 38.5993 41.2069C39.0543 42.2422 39.6632 43.2025 40.4052 44.0553C40.8121 44.5342 41.2496 44.9979 41.6769 45.4463L42.0635 45.8642C42.3941 46.2208 42.7299 46.5724 43.0809 46.9291C43.4319 47.2858 43.8948 47.7902 44.2966 48.2234L44.551 48.4934C45.0597 49.059 45.6192 49.645 46.1279 50.2361C46.5043 50.6743 46.7587 51.0004 47.0486 51.3775C47.1809 51.5405 47.4403 51.887 47.5573 52.0603L47.6031 52.1316L47.2063 52.2896C47.0857 52.3356 46.9684 52.3901 46.8553 52.4526C45.9412 52.904 45.071 53.4397 44.2559 54.0526C44.1237 54.1443 43.8744 54.3379 43.7472 54.4347C42.9727 55.0437 42.2877 55.759 41.7125 56.5596C41.1383 57.307 40.7212 58.1633 40.4865 59.0767C40.2362 60.0684 40.1013 61.0858 40.0847 62.1085C40.092 63.1297 40.041 64.1504 39.9321 65.1658C39.8829 65.5663 39.8064 65.963 39.7032 66.353C39.5346 66.9752 39.3273 67.5861 39.0826 68.1823C38.9344 68.4864 38.7644 68.7793 38.5739 69.0587C38.4874 69.1912 38.4009 69.3237 38.3195 69.4613L37.994 70.0065C38.2413 69.9464 38.4843 69.8698 38.7214 69.7772L40.0389 69.2677C41.1326 68.8142 41.9719 68.5135 43.3556 67.8562C44.6889 67.2138 45.9726 66.473 47.1962 65.6397C47.7455 65.2626 48.3865 64.8295 48.9868 64.3556L49.0274 64.3251C49.5745 63.9167 50.0851 63.4614 50.5535 62.9646C51.3819 62.0474 52.0046 60.9633 52.3797 59.785C52.5413 59.3222 52.6455 58.8414 52.69 58.3532V58.1442C52.7268 57.4736 52.6806 56.801 52.5527 56.1417C52.5476 55.9379 52.5171 55.7596 52.4764 55.5761ZM49.0834 60.1621C48.257 61.333 47.2076 62.3287 45.9957 63.0919C44.8755 63.8919 43.7029 64.6154 42.4857 65.2575C42.4857 65.1098 42.4857 64.962 42.5264 64.8142C42.5518 64.5492 42.5773 64.2741 42.5874 63.9989C42.5874 63.6321 42.5874 63.2652 42.6281 62.8983C42.6281 62.3378 42.6586 61.7569 42.6993 61.1913C42.69 60.2666 42.9158 59.3548 43.3556 58.5417C43.9048 57.6061 44.6686 56.8148 45.5836 56.2334L46.1737 55.785C47.0522 55.1631 47.9833 54.6193 48.9562 54.1596C49.2259 54.5084 49.4435 54.8946 49.6023 55.3061C49.7385 55.6564 49.8373 56.0202 49.8973 56.3914C49.953 56.7851 49.9887 57.1813 50.0041 57.5786C49.917 58.5032 49.6005 59.3913 49.0834 60.1621Z" fill="#8FB685"/>
<path d="M54.0432 49.2528C53.8643 48.8691 53.6657 48.4949 53.448 48.1318C52.6962 46.9028 51.7652 45.7934 50.6859 44.8402C49.9279 44.1217 48.1424 42.5778 48.1424 42.5778C47.7965 42.272 45.8177 40.5956 45.8177 40.5956C45.1513 40.0249 44.4646 39.4339 43.8185 38.8326C43.3099 38.3587 42.8469 37.8543 42.3433 37.304C41.4859 36.4005 40.7737 35.3691 40.2323 34.2467C39.8561 33.4324 39.5744 32.5776 39.3929 31.6989C39.3929 31.6123 39.3421 31.5053 39.3268 31.4136L39.0572 29.9155C39.0572 29.9155 38.8079 31.6327 38.8079 31.8773C38.7424 33.1032 38.9294 34.3294 39.3573 35.4798C39.6409 36.266 39.9809 37.0306 40.3747 37.7676C41.1089 39.0503 42.0104 40.2292 43.0555 41.2733C43.0555 41.2733 45.014 43.2453 45.8584 44.0096C46.0619 44.193 48.5341 46.328 49.994 47.6121C50.875 48.3588 51.6794 49.1918 52.3951 50.0987C52.8275 50.6652 53.2201 51.2611 53.5701 51.8821C54.1361 52.822 54.5242 53.8584 54.7147 54.9394C54.7706 55.2094 54.8419 55.7139 54.8724 55.8719C54.9029 56.0298 54.9487 56.2897 54.9487 56.2897C54.9487 56.2897 55.0046 55.9534 55.025 55.8413C55.0453 55.7292 55.0708 55.4591 55.1013 55.0464C55.22 53.6922 55.0889 52.3277 54.7147 51.021C54.5336 50.4162 54.3092 49.8253 54.0432 49.2528Z" fill="#8FB685"/>
<path d="M0.188215 47.2808L0 45.8591L9.18186 44.6719L9.50742 47.1839L1.91267 52.4832L10.0517 51.4285L10.2399 52.8756L1.08351 54.0628L0.757948 51.5508L8.32217 46.226L0.188215 47.2808Z" fill="#8FB685"/>
<path d="M6.07381 57.3343C6.19823 57.688 6.27687 58.0561 6.30781 58.4298L6.36885 59.1075L6.80632 58.9598C6.98285 58.9024 7.14511 58.808 7.28224 58.6827C7.41936 58.5575 7.52817 58.4043 7.60139 58.2335C7.6746 58.0627 7.71053 57.8782 7.70676 57.6924C7.70299 57.5065 7.65961 57.3236 7.57953 57.156C7.47835 56.8083 7.25114 56.511 6.94246 56.3225C6.63378 56.134 6.26592 56.0678 5.91103 56.1369L5.81947 54.8375C7.07084 54.705 8.14927 55.3471 8.6427 56.8146C9.21752 58.5063 8.67322 59.7394 7.17258 60.254L3.47949 61.5177L3.05219 60.2438L4.06957 59.9024C3.31671 59.8617 2.6198 59.3419 2.26372 58.2922C2.16677 58.0477 2.11967 57.7861 2.12519 57.523C2.13072 57.2599 2.18876 57.0006 2.2959 56.7603C2.40303 56.52 2.5571 56.3037 2.74902 56.124C2.94093 55.9443 3.16682 55.8048 3.41336 55.7139C4.68509 55.2757 5.62616 56.0197 6.07381 57.3343ZM5.36673 59.4489L5.33112 58.9394C5.31749 58.5853 5.25938 58.2343 5.15817 57.8948C4.92926 57.2324 4.53248 56.8757 3.99327 57.0591C3.53036 57.2171 3.29636 57.691 3.55579 58.4451C3.85083 59.3062 4.51722 59.7496 5.30569 59.4642L5.36673 59.4489Z" fill="#8FB685"/>
<path d="M9.04448 61.4512L8.46966 60.3302L9.53282 59.79L10.1026 60.911L11.883 59.999L12.5137 61.2372L10.7333 62.1645L11.8168 64.2842L10.7588 64.8295L9.66508 62.6741L6.85202 64.1161C6.74832 64.1557 6.65427 64.217 6.57616 64.2959C6.49806 64.3749 6.43771 64.4697 6.39917 64.5739C6.36063 64.6781 6.34479 64.7894 6.35271 64.9003C6.36062 65.0111 6.39212 65.119 6.44507 65.2167C6.68924 65.6906 7.10637 65.7874 7.78293 65.5021L8.14918 66.8014C7.90668 66.924 7.64178 66.9958 7.37064 67.0125C7.0995 67.0291 6.82783 66.9902 6.57219 66.8982C6.31655 66.8062 6.08232 66.6629 5.8838 66.4772C5.68527 66.2915 5.52662 66.0672 5.41752 65.818C4.74096 64.4983 5.1123 63.4435 6.2772 62.8473L9.04448 61.4512Z" fill="#8FB685"/>
<path d="M15.7693 69.9404L10.6824 73.6295L9.86854 72.5034L10.6824 71.9174C10.2922 71.9689 9.89542 71.9109 9.53617 71.7499C9.17693 71.5888 8.86935 71.3311 8.64768 71.0053C7.83887 69.8894 7.94569 68.6818 9.22759 67.7493L12.4832 65.385L13.2971 66.5111L10.3111 68.6818C9.51246 69.2627 9.35476 69.9505 9.80241 70.5926C10.3569 71.3518 11.3285 71.4435 12.2899 70.7505L14.9504 68.8143L15.7693 69.9404Z" fill="#8FB685"/>
<path d="M17.6006 71.8817L16.9495 72.5288C17.2478 72.379 17.5869 72.3312 17.9149 72.3929C18.2429 72.4546 18.5417 72.6222 18.7655 72.8702C18.9427 73.0349 19.0843 73.2343 19.1814 73.4561C19.2786 73.6778 19.3292 73.9172 19.3302 74.1594C19.3373 74.3923 19.2957 74.6241 19.2081 74.84C19.1205 75.0558 18.9888 75.251 18.8215 75.4128C18.6353 75.6086 18.4251 75.7798 18.1958 75.9224L17.2242 74.9441C17.375 74.8475 17.5149 74.7347 17.6413 74.6078C17.7233 74.523 17.7871 74.4225 17.8288 74.3122C17.8706 74.2019 17.8895 74.0842 17.8842 73.9664C17.879 73.8485 17.8498 73.733 17.7984 73.6269C17.747 73.5208 17.6745 73.4262 17.5853 73.3492C17.4934 73.2483 17.381 73.1682 17.2557 73.1144C17.1303 73.0606 16.995 73.0342 16.8586 73.0371C16.7223 73.04 16.5881 73.0721 16.4652 73.1312C16.3422 73.1903 16.2333 73.275 16.1458 73.3797L13.1903 76.3198L12.2085 75.3313L16.6646 70.9084L17.6006 71.8817Z" fill="#8FB685"/>
<path d="M22.5707 81.7414C22.0569 82.1383 21.4225 82.3458 20.774 82.3291C20.1255 82.3124 19.5025 82.0725 19.0098 81.6497C17.4837 80.4931 17.1734 78.6689 18.3841 77.0638C19.4626 75.6167 21.2938 75.204 22.764 76.3046C23.0777 76.505 23.3457 76.7696 23.5504 77.0809C23.7552 77.3922 23.892 77.7433 23.952 78.1112C24.012 78.4791 23.9939 78.8555 23.8987 79.2159C23.8036 79.5763 23.6336 79.9125 23.3998 80.2026C23.2483 80.4004 23.0779 80.583 22.8911 80.7478L19.3303 78.0931C19.1612 78.2896 19.0386 78.5218 18.9717 78.7723C18.9048 79.0229 18.8952 79.2854 18.9437 79.5402C19.0595 80.0081 19.337 80.4197 19.7271 80.702C20.0261 80.964 20.4121 81.1045 20.8093 81.096C21.2065 81.0875 21.5861 80.9306 21.8737 80.6561L22.5707 81.7414ZM22.3926 79.1937L22.474 79.102C22.942 78.4803 22.7283 77.7211 22.0518 77.2167C21.7457 76.9611 21.3545 76.8306 20.9565 76.8514C20.5585 76.8722 20.1831 77.0427 19.9051 77.3288L22.3926 79.1937Z" fill="#8FB685"/>
<path d="M29.8908 87.5605L28.5122 87.0918L31.4982 78.3123L35.5677 79.7033C37.399 80.325 37.9738 81.8791 37.4906 83.3007C37.0073 84.7224 35.6084 85.6039 33.7771 84.972L31.0862 84.0752L29.8908 87.5605ZM34.0824 83.6115C34.9726 83.9122 35.761 83.6115 36.0357 82.8065C36.3104 82.0014 35.8679 81.2778 34.9827 80.9772L32.4393 80.1008L31.5389 82.7351L34.0824 83.6115Z" fill="#8FB685"/>
<path d="M43.8442 84.4064L42.954 90.6229L41.5754 90.4242L41.7179 89.4408C41.4822 89.7608 41.1623 90.0089 40.7941 90.1573C40.4258 90.3058 40.0235 90.3488 39.6322 90.2815C38.274 90.0828 37.4805 89.1656 37.7043 87.5962L38.2791 83.6064L39.6526 83.8052L39.1439 87.4637C39.0015 88.4471 39.3881 89.0382 40.1613 89.1503C41.0922 89.2828 41.84 88.6408 42.0078 87.4739L42.4707 84.2077L43.8442 84.4064Z" fill="#8FB685"/>
<path d="M46.54 84.4318V85.3439C46.6407 85.0218 46.845 84.7421 47.1211 84.5485C47.3972 84.355 47.7294 84.2584 48.066 84.2738C48.3073 84.2638 48.5479 84.3039 48.7729 84.3916C48.9979 84.4793 49.2023 84.6127 49.3734 84.7834C49.5401 84.9446 49.6714 85.139 49.759 85.3539C49.8466 85.5688 49.8885 85.7997 49.8821 86.0318C49.8907 86.3006 49.8651 86.5694 49.8058 86.8317H48.4272C48.4588 86.6638 48.4741 86.4931 48.473 86.3222C48.4686 86.2045 48.4404 86.089 48.3902 85.9826C48.34 85.8761 48.2687 85.781 48.1808 85.7029C48.0928 85.6248 47.99 85.5653 47.8785 85.5282C47.7669 85.491 47.6491 85.4768 47.5319 85.4865C47.3951 85.4828 47.2591 85.5084 47.133 85.5618C47.007 85.6152 46.8939 85.6951 46.8013 85.796C46.7087 85.897 46.6388 86.0167 46.5964 86.147C46.5539 86.2773 46.5399 86.4153 46.5552 86.5515L46.6264 90.7247H45.2377L45.136 84.442L46.54 84.4318Z" fill="#8FB685"/>
<path d="M50.3958 81.6701L51.9218 81.502L52.0948 83.0306L50.5687 83.1987L50.3958 81.6701ZM52.1304 84.0905L52.8324 90.3273L51.4487 90.4853L50.7518 84.2433L52.1304 84.0905Z" fill="#8FB685"/>
<path d="M54.3584 84.972L53.1325 85.2421L52.873 84.0803L54.1041 83.8052L53.6717 81.8536L55.0248 81.553L55.4572 83.5045L57.7819 82.995L58.0413 84.1619L55.7166 84.6714L56.3983 87.7644C56.4101 87.8749 56.4456 87.9816 56.5022 88.0772C56.5589 88.1727 56.6354 88.255 56.7266 88.3183C56.8178 88.3816 56.9216 88.4246 57.0308 88.4441C57.14 88.4637 57.2522 88.4596 57.3597 88.4319C57.8684 88.3198 58.077 87.9223 57.9701 87.2089L59.3182 87.1835C59.3747 87.4493 59.3768 87.7239 59.3243 87.9906C59.2717 88.2573 59.1656 88.5106 59.0125 88.735C58.8593 88.9594 58.6623 89.1503 58.4332 89.2961C58.2042 89.442 57.948 89.5397 57.6802 89.5834C56.2355 89.9044 55.3097 89.2777 55.0299 87.9987L54.3584 84.972Z" fill="#8FB685"/>
<path d="M64.2221 80.656L63.4234 90.4852L62.0601 90.9947L62.3755 87.0814L58.1636 82.9541L59.5625 82.4445L62.518 85.4305L62.8639 81.1859L64.2221 80.656Z" fill="#8FB685"/>
<path d="M67.4675 75.4639L70.8707 72.7226C72.1984 71.6525 73.8618 71.7035 74.7215 72.7633C75.002 73.1164 75.1671 73.5474 75.1944 73.9978C75.2217 74.4481 75.1098 74.896 74.8741 75.2805C75.3387 75.0327 75.8766 74.9602 76.39 75.0762C76.9035 75.1921 77.3583 75.4888 77.6719 75.9123C78.5773 77.0384 78.206 78.7148 76.8783 79.7849L73.2717 82.6893L67.4675 75.4639ZM73.2208 75.7594C74.0347 75.1021 74.1772 74.4092 73.6685 73.7824C73.1598 73.1557 72.3967 73.2729 71.6897 73.8486L69.4718 75.6321L70.9978 77.5429L73.2208 75.7594ZM75.9576 78.7403C76.6901 78.1543 76.863 77.334 76.3645 76.7021C76.2342 76.5543 76.0754 76.4343 75.8976 76.3496C75.7198 76.2648 75.5267 76.2169 75.33 76.2088C75.1332 76.2007 74.9369 76.2326 74.7528 76.3025C74.5686 76.3724 74.4005 76.4788 74.2585 76.6155L71.8321 78.5671L73.5311 80.6817L75.9576 78.7403Z" fill="#8FB685"/>
<path d="M83.0284 70.5875C83.3882 71.1248 83.5531 71.7695 83.4957 72.414C83.4384 73.0585 83.1621 73.6637 82.713 74.1288C81.4616 75.6014 79.6303 75.7747 78.0839 74.4651C76.7155 73.2983 76.4154 71.4384 77.6057 70.0372C77.828 69.7362 78.1111 69.4856 78.4367 69.3018C78.7622 69.1179 79.1229 69.005 79.495 68.9704C79.8671 68.9358 80.2423 68.9802 80.5961 69.1008C80.9499 69.2214 81.2743 69.4155 81.5481 69.6703C81.731 69.8262 81.9011 69.9966 82.0568 70.1798L79.1878 73.5581C79.3732 73.7397 79.597 73.8771 79.8428 73.96C80.0885 74.0429 80.3497 74.0693 80.607 74.0371C81.0785 73.9477 81.5046 73.6974 81.8126 73.3288C82.0921 73.046 82.2563 72.669 82.2733 72.2714C82.2902 71.8738 82.1586 71.4842 81.9042 71.1786L83.0284 70.5875ZM80.4849 70.5875L80.4035 70.5009C79.8084 69.9913 79.0453 70.1595 78.4959 70.8066C78.2211 71.0964 78.0657 71.4796 78.061 71.8793C78.0563 72.279 78.2026 72.6657 78.4705 72.962L80.4849 70.5875Z" fill="#8FB685"/>
<path d="M83.4251 66.45C83.6152 66.1263 83.846 65.8283 84.1118 65.5634L84.5849 65.0793L84.1932 64.8398C84.0354 64.7421 83.8586 64.6791 83.6746 64.6551C83.4906 64.6311 83.3036 64.6466 83.126 64.7006C82.9485 64.7546 82.7844 64.8458 82.6448 64.9682C82.5051 65.0906 82.3931 65.2414 82.3161 65.4105C82.1117 65.7114 82.0271 66.078 82.0789 66.4382C82.1306 66.7984 82.3151 67.1261 82.5959 67.357L81.6701 68.2793C80.7595 67.408 80.5662 66.1596 81.3598 64.8449C82.2805 63.3163 83.5726 62.9341 84.9206 63.7545L88.2627 65.7672L87.5811 66.9035L86.6756 66.3583C87.1283 66.9596 87.1843 67.8258 86.6095 68.7786C86.4846 69.0102 86.3149 69.2145 86.1102 69.3794C85.9055 69.5444 85.67 69.6668 85.4174 69.7394C85.1649 69.812 84.9005 69.8334 84.6396 69.8023C84.3787 69.7712 84.1266 69.6882 83.8982 69.5583C82.7485 68.8398 82.7129 67.6424 83.4251 66.45ZM85.4955 65.6245L85.119 65.9863C84.8589 66.2282 84.6284 66.5002 84.4323 66.7965C84.0762 67.3978 84.0609 67.9328 84.5493 68.2232C85.0376 68.5137 85.4751 68.3506 85.8871 67.6678C86.3551 66.8882 86.2636 66.0882 85.5514 65.6602L85.4955 65.6245Z" fill="#8FB685"/>
<path d="M85.5463 56.1367L91.381 58.4399L90.8723 59.7341L89.9465 59.3723C90.2036 59.6745 90.3713 60.0426 90.4306 60.4352C90.4899 60.8278 90.4385 61.2291 90.2822 61.594C89.7735 62.878 88.7053 63.4385 87.2301 62.8525L83.4912 61.3749L83.9999 60.0806L87.4336 61.436C88.3594 61.8029 89.0207 61.5634 89.3106 60.8246C89.6515 59.9481 89.2038 59.0768 88.1101 58.6437L85.058 57.431L85.5463 56.1367Z" fill="#8FB685"/>
<path d="M87.1894 54.491L86.9197 55.719L85.7549 55.4592L86.0295 54.2311L84.0762 53.8031L84.3763 52.4426L86.3297 52.8757L86.8384 50.5471L88.0033 50.8019L87.4946 53.1305L90.5823 53.8133C90.6878 53.8505 90.8 53.8644 90.9113 53.8539C91.0226 53.8434 91.1304 53.8089 91.2271 53.7527C91.3238 53.6966 91.4072 53.62 91.4715 53.5285C91.5358 53.4369 91.5796 53.3324 91.5997 53.2222C91.7167 52.7127 91.4522 52.3611 90.7553 52.1522L91.2996 50.914C91.5642 50.9749 91.8137 51.089 92.033 51.2494C92.2522 51.4098 92.4367 51.6131 92.5751 51.8471C92.7135 52.081 92.8031 52.3407 92.8383 52.6104C92.8735 52.8801 92.8536 53.1541 92.7799 53.4159C92.4594 54.863 91.5081 55.4541 90.2364 55.1585L87.1894 54.491Z" fill="#8FB685"/>
<path d="M87.449 43.7087L96.0001 48.5851L95.8933 50.0424L92.485 48.101L86.9861 50.18L87.098 48.687L91.0556 47.2654L87.3625 45.1609L87.449 43.7087Z" fill="#8FB685"/>
<path d="M91.187 33.0083V34.2414L90.6223 35.9382L92.1484 34.8274L93.3286 34.4401L93.7864 35.8821L92.6215 36.2745H90.7393L92.2654 37.2936L92.9878 38.3127L91.716 39.235L90.9733 38.2159L90.4087 36.4019L89.8644 38.2159L89.1421 39.235L87.9212 38.3178L88.6435 37.2987L90.1696 36.2796H88.2875L87.1226 35.8872L87.5804 34.4452L88.7605 34.8325L90.2866 35.9433L89.722 34.2465V33.0083H91.187Z" fill="#8FB685"/>
<path d="M5.13772 33.0083V34.2414L4.57816 35.9382L6.10424 34.8274L7.2844 34.4401L7.74222 35.8821L6.5824 36.2745H4.6799L6.20597 37.2936L6.92831 38.3127L5.66676 39.235L4.94442 38.2159L4.38486 36.4019L3.82022 38.2159L3.09788 39.235L1.8465 38.3178L2.56884 37.2987L4.09491 36.2796H2.1975L1.01733 35.8821L1.47516 34.4401L2.65532 34.8274L4.18139 35.9382L3.62691 34.2414V33.0083H5.13772Z" fill="#8FB685"/>
</svg>
