<svg width="182" height="33" viewBox="0 0 182 33" fill="none" xmlns="http://www.w3.org/2000/svg">
<path d="M146.514 0.705078H143.161V5.76824H139.765V8.04638H143.161V16.2568C143.161 19.2776 145.08 21.7619 147.943 22.4408C148.282 22.5123 148.624 22.5591 148.969 22.5809C149.062 22.5923 149.148 22.598 149.237 22.6048C149.326 22.6117 149.396 22.6151 149.476 22.6265H149.796V19.2263L149.221 19.1933C149.18 19.1921 149.139 19.1883 149.098 19.1819C149.061 19.1762 149.023 19.1724 148.985 19.1705C148.229 19.0692 147.631 18.8072 147.208 18.396C146.757 17.8971 146.515 17.2227 146.515 16.4459V8.05208H150.554V5.77394H146.514V0.705078Z" fill="white"/>
<path d="M155.62 4.3046C156.799 4.3046 157.755 3.34991 157.755 2.17226C157.755 0.994598 156.799 0.039917 155.62 0.039917C154.442 0.039917 153.486 0.994598 153.486 2.17226C153.486 3.34991 154.442 4.3046 155.62 4.3046Z" fill="white"/>
<path d="M157.297 5.67606H153.944V22.6334H157.297V5.67606Z" fill="white"/>
<path d="M50.6655 1.91994e-05C50.0919 -0.00210447 49.5408 0.225346 49.133 0.63252C48.7253 1.0397 48.4941 1.59338 48.4902 2.17223C48.4902 2.75437 48.7194 3.31268 49.1274 3.72432C49.5353 4.13596 50.0886 4.36721 50.6655 4.36721C51.2425 4.36721 51.7958 4.13596 52.2037 3.72432C52.6117 3.31268 52.8408 2.75437 52.8408 2.17223C52.8372 1.59329 52.6062 1.03943 52.1984 0.632186C51.7906 0.224947 51.2393 -0.00240564 50.6655 1.91994e-05Z" fill="white"/>
<path d="M52.3826 5.72723H48.9497V22.5126H52.3826V5.72723Z" fill="white"/>
<path d="M71.1743 12.7336C71.1734 12.2788 71.1253 11.8252 71.0309 11.3804C70.4665 8.81865 68.8488 6.80592 66.5765 5.86049C64.2612 4.89797 61.4729 5.4527 59.6035 7.23876V5.72722H56.2666V22.5137H59.6532V21.7562C59.6532 20.7789 59.6513 19.8016 59.6475 18.8242V18.8117C59.6475 16.9015 59.6374 14.9275 59.6532 12.9592C59.6532 9.75839 61.6659 8.03042 63.5601 8.03042H63.603C64.7051 8.02115 65.7663 8.45094 66.5561 9.22644C67.3305 9.99303 67.8103 11.8463 67.8103 13.1255V22.5148H71.1765V17.2649C71.1822 15.8012 71.1856 14.2383 71.1743 12.7336Z" fill="white"/>
<path d="M138.76 12.7336C138.759 12.2788 138.711 11.8252 138.617 11.3804C138.052 8.81865 136.435 6.80592 134.162 5.86049C131.847 4.89797 129.059 5.4527 127.193 7.23876V5.72722H123.853V22.5137H127.239V21.7562C127.239 20.7789 127.237 19.8016 127.233 18.8242C127.233 16.9129 127.223 14.9377 127.239 12.9592C127.239 9.75839 129.252 8.03042 131.146 8.03042H131.189C132.291 8.02115 133.352 8.45094 134.142 9.22644C134.916 9.99303 135.396 11.8463 135.396 13.1255V22.5148H138.762V17.2649C138.768 15.8012 138.772 14.2383 138.76 12.7336Z" fill="white"/>
<path d="M30.6722 6.84245C27.6401 4.8935 23.2691 4.56431 19.7945 6.02802L19.6816 6.07586V30.5921H23.1122V22.4397C26.141 22.909 29.26 22.0695 31.4658 20.1867C32.4346 19.3728 33.2077 18.3476 33.7267 17.1884C34.2456 16.0292 34.497 14.7662 34.4618 13.4946C34.3861 10.7255 33.0394 8.36425 30.6722 6.84245ZM29.2137 17.8128C27.7959 19.28 25.1814 20.6206 23.1179 20.2368V7.32769C25.8373 6.98597 28.8954 8.67977 30.2398 11.2734C31.4127 13.5413 31.0436 15.9243 29.2137 17.8128Z" fill="white"/>
<path d="M40.2564 7.81283V5.72719H36.8359V22.4396H40.2575V22.0774C40.2575 21.2102 40.2575 20.3399 40.2575 19.4667V19.3527C40.2519 17.4813 40.2485 15.7943 40.2575 14.0937V13.0309C40.3805 10.6605 41.6234 9.14099 43.8484 8.63638C44.4004 8.50424 45.6704 8.46096 45.7245 8.45982H45.9029V5.42648H45.6828C43.3618 5.37977 41.7216 5.75908 40.2564 7.81283Z" fill="white"/>
<path d="M104.429 17.5691C104.248 14.6178 101.156 13.5733 98.424 12.6529L98.1124 12.539L98.0921 12.5322C97.934 12.4786 97.7783 12.4251 97.6146 12.3647L97.5931 12.3579C94.5667 11.1641 94.2822 10.1788 94.2517 9.3496C94.251 9.00507 94.3853 8.67424 94.6254 8.42923C95.0577 7.9531 95.7949 7.65124 96.5975 7.62277C99.2684 7.52595 100.454 9.20266 100.977 10.6242L101.023 10.745H104.398L104.323 10.4294C104.04 9.20721 102.692 5.30362 97.1201 5.30362C96.9734 5.30362 96.8244 5.30362 96.6686 5.31159C94.8444 5.37652 93.4333 5.93694 92.4749 6.97805C91.2332 8.34494 91.2332 10.0239 91.2636 10.5092C91.4307 13.1974 93.7889 14.2339 96.8571 15.3081L96.9203 15.3263C96.9644 15.3377 97.0411 15.3662 97.0874 15.3833L97.1348 15.4003C97.2127 15.4311 97.2906 15.4596 97.3606 15.4846C99.5494 16.3218 101.499 17.1932 101.322 18.6934C101.322 18.7196 101.316 18.7481 101.314 18.7811C101.273 19.2367 101.178 20.3166 98.7954 20.656H98.6497C97.9555 20.6811 95.8378 20.7551 94.4617 17.5236L94.4143 17.4097H90.873L91.0988 18.1284C91.5361 19.4746 92.3855 20.646 93.5247 21.4739C94.7992 22.3965 96.3615 22.8647 98.17 22.8647C98.2975 22.8647 98.4262 22.8647 98.5572 22.8567L98.8699 22.8453C104.39 22.4922 104.468 18.3881 104.427 17.5669L104.429 17.5691Z" fill="white"/>
<path d="M4.7412 3.25704C5.41061 2.73876 6.31257 2.44033 7.28113 2.41413H7.51367C11.4082 2.41413 12.9469 5.17979 13.5215 6.8565L13.5632 6.98066H17.3731L17.3167 6.72209C16.9554 5.09778 15.1718 -0.18637 7.42562 0.0129678C5.06405 0.0756166 3.23982 0.775006 2.00711 2.09291C0.407518 3.81518 0.388327 5.9555 0.421064 6.56946C0.600552 9.97755 3.66879 11.3535 7.66268 12.7911L7.71574 12.807C7.8049 12.8328 7.89269 12.8632 7.97876 12.8981L8.04875 12.9243C8.14809 12.9642 8.24856 13.0029 8.35129 13.0382C12.8882 14.8209 13.7698 16.0294 13.8691 17.7654C13.9899 19.843 11.8869 20.5094 10.1044 20.7019H9.90685C7.29129 20.7725 5.3474 19.384 4.12259 16.5785L4.07405 16.4646H0L0.086922 16.7459C0.63662 18.4936 1.72205 20.02 3.18676 21.1051C4.86086 22.341 6.93457 22.9675 9.35032 22.9675C9.47563 22.9675 9.60206 22.9675 9.72962 22.9675L10.1428 22.9561C17.2546 22.5666 17.4058 17.3359 17.3675 16.2914C17.1756 12.5462 13.1343 11.1417 9.56932 9.90237L9.1381 9.7486C8.92023 9.67228 8.70575 9.59597 8.48675 9.51395L8.44046 9.498C4.60687 7.94431 3.79522 6.60818 3.75458 5.08639C3.73652 4.41092 4.08533 3.76051 4.7412 3.25704Z" fill="white"/>
<path d="M84.2739 5.4539C83.6191 5.43112 82.9475 5.37986 82.2893 5.32974C81.945 5.30354 81.6007 5.2762 81.2531 5.25342L80.4132 5.23975H80.2619C77.4398 5.33999 74.9461 6.79914 73.9098 8.95882C72.9164 11.0274 73.447 13.2873 75.3661 15.1531C75.637 15.4173 76.1788 15.9049 76.8652 16.52L76.8866 16.5382C79.6331 19.0054 85.3474 24.1369 85.7222 25.8649C85.7822 26.1127 85.8159 26.3662 85.8227 26.6212C85.8227 28.5736 83.6553 30.3415 81.1864 30.4041C78.7831 30.3346 76.7523 28.6021 76.7523 26.6212C76.7595 26.3666 76.7936 26.1134 76.8539 25.866C77.0018 25.1826 78.1284 23.9718 79.3227 22.6858L79.4762 22.5206L77.2185 20.3393L77.0526 20.4965C76.469 21.0501 75.7995 21.6925 75.2611 22.2563C73.4323 24.0435 72.8555 26.308 73.6807 28.4688C74.6165 30.9269 77.1034 32.6731 80.0136 32.9112H80.0282C80.3048 32.9476 80.5927 32.9716 80.8884 32.9841V32.9966H81.1661H81.1932L81.3851 32.9909H81.4258C81.743 32.9784 82.0557 32.9533 82.3526 32.9146C85.2876 32.6708 87.9156 30.7823 88.892 28.2182C89.733 26.0118 89.1867 23.7428 87.3963 21.9932C86.579 21.1389 85.5179 20.0682 84.4929 19.0316L84.4522 18.9906C83.7986 18.3311 83.1823 17.7092 82.6461 17.159L82.6269 17.1385C82.4203 16.9232 82.2498 16.7444 82.12 16.6031C83.8991 16.1475 85.475 15.0768 86.6795 13.5083C87.8099 12.0099 88.5441 10.246 88.813 8.38245C89.0478 8.34486 89.2307 8.31183 89.3537 8.28905L89.391 8.28221L89.4971 8.26285L89.6845 8.24576L90.1959 4.63605L89.829 4.76476C88.2587 5.31152 86.4955 5.53136 84.2739 5.4539ZM81.3321 13.4855C79.6501 13.973 78.1555 13.6837 77.2332 12.6881C76.487 11.8908 76.268 10.7642 76.6688 9.82907C77.1203 8.77999 78.2966 8.13983 79.8871 8.07262C80.0328 8.06579 80.1852 8.06237 80.3387 8.06237C81.3998 8.06237 82.5004 8.20931 83.5706 8.35283C84.1553 8.43029 84.7582 8.51117 85.3418 8.56356C85.1329 10.7722 83.4148 12.8818 81.3321 13.4855Z" fill="white"/>
<path d="M112.631 5.62243C109.691 6.37877 106.464 8.99863 106.226 14.1051C106.209 18.1943 108.093 21.4806 111.022 22.4773L111.044 22.4852C111.748 22.7252 112.485 22.851 113.228 22.8577H113.254C113.392 22.8634 113.528 22.8668 113.658 22.8668H113.666C115.491 22.8668 117.09 22.3793 118.416 21.4179C119.584 20.5675 120.454 19.365 120.901 17.9836L121.092 17.3913H117.442L117.394 17.5052C115.978 20.6878 113.849 20.616 113.146 20.591C113.07 20.591 112.994 20.5796 112.92 20.5704L112.854 20.5625C112.683 20.5438 112.512 20.5145 112.344 20.4748L112.288 20.46L112.25 20.4497L112.168 20.4258C111.841 20.3281 111.535 20.1701 111.265 19.9599L111.253 19.9497C110.349 19.2377 109.82 17.9608 109.723 16.2545C110.825 16.1691 115.851 15.7613 117.591 15.3034C118.607 15.0368 118.803 14.891 119.254 14.5687C119.32 14.5208 119.395 14.4673 119.48 14.4092L119.541 14.3671L119.559 14.3466L119.585 14.3238C120.374 13.6207 120.921 12.6824 121.147 11.6447C121.391 10.6046 121.221 9.50955 120.674 8.59426C119.064 5.99035 115.835 4.79888 112.631 5.62243ZM116.457 12.7678C116.089 12.9743 115.69 13.1164 115.276 13.1881L109.656 13.8887C109.732 11.7244 110.419 10.1001 111.701 9.07495C112.583 8.36759 113.75 7.97803 114.985 7.97803C115.343 7.97654 115.702 8.01126 116.054 8.08168C117.045 8.28444 117.703 8.95079 117.86 9.90419C118.041 11.0296 117.478 12.1778 116.457 12.7678Z" fill="white"/>
<path d="M174.936 22.3941V14.0914V13.7565V13.7132C174.844 9.68662 173.145 6.7239 170.387 5.78531L170.366 5.77847C169.664 5.539 168.928 5.41328 168.186 5.406H168.162C166.167 5.32854 164.436 5.81265 163.013 6.84236C161.846 7.68992 160.977 8.88926 160.529 10.2675L160.378 10.7403H164.023L164.073 10.6332C165.485 7.57251 167.572 7.64655 168.256 7.67161C168.332 7.67161 168.409 7.683 168.49 7.69211L168.551 7.70008C168.722 7.71773 168.893 7.74704 169.06 7.78779L169.117 7.8026L169.154 7.81285L169.236 7.83563C169.563 7.93276 169.87 8.09077 170.139 8.30151L170.153 8.31176C171.056 9.02027 171.581 10.2937 171.677 11.9944C170.578 12.0798 165.566 12.4876 163.832 12.9444C162.652 13.2553 162.365 13.4512 161.751 13.8818L161.69 13.924L161.672 13.9433L161.646 13.965C159.963 15.4583 159.494 17.9141 160.559 19.6785C161.594 21.3963 163.302 22.508 165.367 22.8087C165.74 22.8625 166.118 22.8895 166.495 22.8896C168.491 22.8803 170.423 22.1744 171.961 20.8917V22.3941H174.936ZM169.638 19.1682C168.283 20.2538 166.538 20.3836 165.359 20.1421C164.37 19.9394 163.714 19.2765 163.558 18.3196C163.376 17.2022 163.939 16.0563 164.957 15.472C165.323 15.2654 165.721 15.1236 166.134 15.0528L171.675 14.3477C171.598 16.4948 170.895 18.1624 169.638 19.1682Z" fill="white"/>
<path d="M178.509 6.04967H177.57V8.65701H177.044V6.04967H176.102V5.67606H178.512L178.509 6.04967Z" fill="white"/>
<path d="M182 8.65701H181.514V6.02689L180.761 8.65701H180.122L179.369 6.02803V8.65701H178.882V5.67606H179.735L180.261 7.48832C180.342 7.77303 180.402 8.06358 180.439 8.35743C180.474 8.0677 180.534 7.78152 180.617 7.50199L181.148 5.67947H182V8.65701Z" fill="white"/>
</svg>
