<svg width="182" height="33" viewBox="0 0 182 33" fill="none" xmlns="http://www.w3.org/2000/svg">
<path d="M146.514 0.705078H143.161V5.76824H139.765V8.04638H143.161V16.2568C143.161 19.2776 145.08 21.7619 147.943 22.4408C148.282 22.5123 148.624 22.5591 148.969 22.5809C149.062 22.5923 149.148 22.598 149.237 22.6048C149.326 22.6117 149.396 22.6151 149.476 22.6265H149.796V19.2263L149.221 19.1933C149.18 19.1921 149.139 19.1883 149.098 19.1819C149.061 19.1762 149.023 19.1724 148.985 19.1705C148.229 19.0692 147.631 18.8072 147.208 18.396C146.757 17.8971 146.515 17.2227 146.515 16.4459V8.05208H150.554V5.77394H146.514V0.705078Z" fill="#014C37"/>
<path d="M155.62 4.30447C156.799 4.30447 157.755 3.34979 157.755 2.17213C157.755 0.994476 156.799 0.0397949 155.62 0.0397949C154.442 0.0397949 153.486 0.994476 153.486 2.17213C153.486 3.34979 154.442 4.30447 155.62 4.30447Z" fill="#014C37"/>
<path d="M157.297 5.67603H153.944V22.6334H157.297V5.67603Z" fill="#014C37"/>
<path d="M50.6655 1.91994e-05C50.0919 -0.00210447 49.5408 0.225346 49.133 0.63252C48.7253 1.0397 48.4941 1.59338 48.4902 2.17223C48.4902 2.75437 48.7194 3.31268 49.1274 3.72432C49.5353 4.13596 50.0886 4.36721 50.6655 4.36721C51.2425 4.36721 51.7958 4.13596 52.2037 3.72432C52.6117 3.31268 52.8408 2.75437 52.8408 2.17223C52.8372 1.59329 52.6062 1.03943 52.1984 0.632186C51.7906 0.224947 51.2393 -0.00240564 50.6655 1.91994e-05Z" fill="#014C37"/>
<path d="M52.3826 5.72729H48.9497V22.5126H52.3826V5.72729Z" fill="#014C37"/>
<path d="M71.1743 12.7337C71.1734 12.2788 71.1253 11.8253 71.0309 11.3805C70.4665 8.81874 68.8488 6.80601 66.5765 5.86058C64.2612 4.89806 61.4729 5.45279 59.6035 7.23885V5.72731H56.2666V22.5138H59.6532V21.7563C59.6532 20.779 59.6513 19.8017 59.6475 18.8243V18.8118C59.6475 16.9016 59.6374 14.9276 59.6532 12.9593C59.6532 9.75848 61.6659 8.03051 63.5601 8.03051H63.603C64.7051 8.02125 65.7663 8.45103 66.5561 9.22653C67.3305 9.99313 67.8103 11.8464 67.8103 13.1256V22.5149H71.1765V17.265C71.1822 15.8012 71.1856 14.2384 71.1743 12.7337Z" fill="#014C37"/>
<path d="M138.76 12.7337C138.759 12.2788 138.711 11.8253 138.617 11.3805C138.052 8.81874 136.435 6.80601 134.162 5.86058C131.847 4.89806 129.059 5.45279 127.193 7.23885V5.72731H123.853V22.5138H127.239V21.7563C127.239 20.779 127.237 19.8017 127.233 18.8243C127.233 16.913 127.223 14.9378 127.239 12.9593C127.239 9.75848 129.252 8.03051 131.146 8.03051H131.189C132.291 8.02125 133.352 8.45103 134.142 9.22653C134.916 9.99313 135.396 11.8464 135.396 13.1256V22.5149H138.762V17.265C138.768 15.8012 138.772 14.2384 138.76 12.7337Z" fill="#014C37"/>
<path d="M30.6722 6.84242C27.6401 4.89347 23.2691 4.56428 19.7945 6.02798L19.6816 6.07583V30.592H23.1122V22.4397C26.141 22.909 29.26 22.0695 31.4658 20.1866C32.4346 19.3728 33.2077 18.3476 33.7267 17.1884C34.2456 16.0291 34.497 14.7661 34.4618 13.4946C34.3861 10.7255 33.0394 8.36422 30.6722 6.84242ZM29.2137 17.8128C27.7959 19.2799 25.1814 20.6206 23.1179 20.2367V7.32766C25.8373 6.98594 28.8954 8.67974 30.2398 11.2734C31.4127 13.5413 31.0436 15.9242 29.2137 17.8128Z" fill="#014C37"/>
<path d="M40.2564 7.81286V5.72722H36.8359V22.4397H40.2575V22.0774C40.2575 21.2102 40.2575 20.34 40.2575 19.4667V19.3528C40.2519 17.4813 40.2485 15.7943 40.2575 14.0937V13.0309C40.3805 10.6605 41.6234 9.14102 43.8484 8.63641C44.4004 8.50428 45.6704 8.46099 45.7245 8.45985H45.9029V5.42651H45.6828C43.3618 5.37981 41.7216 5.75912 40.2564 7.81286Z" fill="#014C37"/>
<path d="M104.429 17.5692C104.248 14.6179 101.156 13.5734 98.424 12.653L98.1124 12.5391L98.0921 12.5323C97.934 12.4787 97.7783 12.4252 97.6146 12.3648L97.5931 12.358C94.5667 11.1642 94.2822 10.1789 94.2517 9.34969C94.251 9.00517 94.3853 8.67433 94.6254 8.42932C95.0577 7.95319 95.7949 7.65133 96.5975 7.62286C99.2684 7.52604 100.454 9.20275 100.977 10.6243L101.023 10.745H104.398L104.323 10.4295C104.04 9.2073 102.692 5.30371 97.1201 5.30371C96.9734 5.30371 96.8244 5.30371 96.6686 5.31168C94.8444 5.37661 93.4333 5.93703 92.4749 6.97814C91.2332 8.34503 91.2332 10.024 91.2636 10.5093C91.4307 13.1975 93.7889 14.234 96.8571 15.3082L96.9203 15.3264C96.9644 15.3378 97.0411 15.3663 97.0874 15.3833L97.1348 15.4004C97.2127 15.4312 97.2906 15.4597 97.3606 15.4847C99.5494 16.3219 101.499 17.1933 101.322 18.6935C101.322 18.7197 101.316 18.7482 101.314 18.7812C101.273 19.2368 101.178 20.3167 98.7954 20.6561H98.6497C97.9555 20.6812 95.8378 20.7552 94.4617 17.5237L94.4143 17.4097H90.873L91.0988 18.1285C91.5361 19.4747 92.3855 20.6461 93.5247 21.474C94.7992 22.3966 96.3615 22.8648 98.17 22.8648C98.2975 22.8648 98.4262 22.8648 98.5572 22.8568L98.8699 22.8454C104.39 22.4923 104.468 18.3882 104.427 17.5669L104.429 17.5692Z" fill="#014C37"/>
<path d="M4.7412 3.25713C5.41061 2.73885 6.31257 2.44042 7.28113 2.41422H7.51367C11.4082 2.41422 12.9469 5.17988 13.5215 6.85659L13.5632 6.98075H17.3731L17.3167 6.72218C16.9554 5.09787 15.1718 -0.186278 7.42562 0.0130593C5.06405 0.0757082 3.23982 0.775097 2.00711 2.093C0.407518 3.81528 0.388327 5.95559 0.421064 6.56955C0.600552 9.97764 3.66879 11.3536 7.66268 12.7911L7.71574 12.8071C7.8049 12.8329 7.89269 12.8633 7.97876 12.8982L8.04875 12.9244C8.14809 12.9643 8.24856 13.003 8.35129 13.0383C12.8882 14.821 13.7698 16.0295 13.8691 17.7655C13.9899 19.8431 11.8869 20.5095 10.1044 20.702H9.90685C7.29129 20.7726 5.3474 19.3841 4.12259 16.5786L4.07405 16.4647H0L0.086922 16.746C0.63662 18.4937 1.72205 20.0201 3.18676 21.1052C4.86086 22.3411 6.93457 22.9676 9.35032 22.9676C9.47563 22.9676 9.60206 22.9676 9.72962 22.9676L10.1428 22.9562C17.2546 22.5667 17.4058 17.336 17.3675 16.2915C17.1756 12.5462 13.1343 11.1418 9.56932 9.90247L9.1381 9.74869C8.92023 9.67237 8.70575 9.59606 8.48675 9.51404L8.44046 9.4981C4.60687 7.94441 3.79522 6.60828 3.75458 5.08648C3.73652 4.41101 4.08533 3.7606 4.7412 3.25713Z" fill="#014C37"/>
<path d="M84.2739 5.45384C83.6191 5.43106 82.9475 5.3798 82.2893 5.32968C81.945 5.30348 81.6007 5.27614 81.2531 5.25336L80.4132 5.23969H80.2619C77.4398 5.33993 74.9461 6.79908 73.9098 8.95876C72.9164 11.0273 73.447 13.2872 75.3661 15.153C75.637 15.4173 76.1788 15.9048 76.8652 16.5199L76.8866 16.5381C79.6331 19.0054 85.3474 24.1369 85.7222 25.8648C85.7822 26.1126 85.8159 26.3662 85.8227 26.6212C85.8227 28.5736 83.6553 30.3414 81.1864 30.404C78.7831 30.3346 76.7523 28.602 76.7523 26.6212C76.7595 26.3665 76.7936 26.1134 76.8539 25.866C77.0018 25.1825 78.1284 23.9717 79.3227 22.6857L79.4762 22.5205L77.2185 20.3392L77.0526 20.4964C76.469 21.05 75.7995 21.6924 75.2611 22.2563C73.4323 24.0435 72.8555 26.3079 73.6807 28.4688C74.6165 30.9269 77.1034 32.6731 80.0136 32.9111H80.0282C80.3048 32.9476 80.5927 32.9715 80.8884 32.984V32.9966H81.1661H81.1932L81.3851 32.9909H81.4258C81.743 32.9783 82.0557 32.9533 82.3526 32.9145C85.2876 32.6708 87.9156 30.7822 88.892 28.2182C89.733 26.0118 89.1867 23.7428 87.3963 21.9931C86.579 21.1388 85.5179 20.0681 84.4929 19.0316L84.4522 18.9906C83.7986 18.331 83.1823 17.7091 82.6461 17.1589L82.6269 17.1384C82.4203 16.9231 82.2498 16.7443 82.12 16.6031C83.8991 16.1474 85.475 15.0767 86.6795 13.5082C87.8099 12.0098 88.5441 10.2459 88.813 8.38239C89.0478 8.3448 89.2307 8.31177 89.3537 8.28898L89.391 8.28215L89.4971 8.26279L89.6845 8.2457L90.1959 4.63599L89.829 4.7647C88.2587 5.31146 86.4955 5.5313 84.2739 5.45384ZM81.3321 13.4854C79.6501 13.9729 78.1555 13.6836 77.2332 12.6881C76.487 11.8907 76.268 10.7642 76.6688 9.82901C77.1203 8.77992 78.2966 8.13977 79.8871 8.07256C80.0328 8.06573 80.1852 8.06231 80.3387 8.06231C81.3998 8.06231 82.5004 8.20925 83.5706 8.35277C84.1553 8.43023 84.7582 8.5111 85.3418 8.5635C85.1329 10.7722 83.4148 12.8817 81.3321 13.4854Z" fill="#014C37"/>
<path d="M112.631 5.62234C109.691 6.37868 106.464 8.99854 106.226 14.105C106.209 18.1943 108.093 21.4805 111.022 22.4772L111.044 22.4851C111.748 22.7251 112.485 22.8509 113.228 22.8576H113.254C113.392 22.8633 113.528 22.8667 113.658 22.8667H113.666C115.491 22.8667 117.09 22.3792 118.416 21.4178C119.584 20.5674 120.454 19.3649 120.901 17.9835L121.092 17.3912H117.442L117.394 17.5051C115.978 20.6877 113.849 20.6159 113.146 20.5909C113.07 20.5909 112.994 20.5795 112.92 20.5704L112.854 20.5624C112.683 20.5437 112.512 20.5144 112.344 20.4747L112.288 20.4599L112.25 20.4496L112.168 20.4257C111.841 20.328 111.535 20.17 111.265 19.9598L111.253 19.9496C110.349 19.2376 109.82 17.9607 109.723 16.2544C110.825 16.169 115.851 15.7612 117.591 15.3033C118.607 15.0368 118.803 14.891 119.254 14.5686C119.32 14.5208 119.395 14.4672 119.48 14.4091L119.541 14.367L119.559 14.3465L119.585 14.3237C120.374 13.6206 120.921 12.6823 121.147 11.6446C121.391 10.6045 121.221 9.50946 120.674 8.59417C119.064 5.99026 115.835 4.79879 112.631 5.62234ZM116.457 12.7677C116.089 12.9742 115.69 13.1163 115.276 13.188L109.656 13.8886C109.732 11.7243 110.419 10.1 111.701 9.07486C112.583 8.3675 113.75 7.97793 114.985 7.97793C115.343 7.97645 115.702 8.01117 116.054 8.08159C117.045 8.28434 117.703 8.9507 117.86 9.9041C118.041 11.0295 117.478 12.1777 116.457 12.7677Z" fill="#014C37"/>
<path d="M174.936 22.3941V14.0914V13.7565V13.7132C174.844 9.68659 173.145 6.72387 170.387 5.78528L170.366 5.77844C169.664 5.53897 168.928 5.41325 168.186 5.40597H168.162C166.167 5.32851 164.436 5.81262 163.013 6.84233C161.846 7.68988 160.977 8.88923 160.529 10.2675L160.378 10.7402H164.023L164.073 10.6332C165.485 7.57248 167.572 7.64652 168.256 7.67158C168.332 7.67158 168.409 7.68297 168.49 7.69208L168.551 7.70005C168.722 7.7177 168.893 7.747 169.06 7.78776L169.117 7.80257L169.154 7.81282L169.236 7.8356C169.563 7.93273 169.87 8.09074 170.139 8.30148L170.153 8.31173C171.056 9.02024 171.581 10.2937 171.677 11.9943C170.578 12.0798 165.566 12.4876 163.832 12.9443C162.652 13.2553 162.365 13.4512 161.751 13.8818L161.69 13.9239L161.672 13.9433L161.646 13.9649C159.963 15.4583 159.494 17.9141 160.559 19.6785C161.594 21.3962 163.302 22.508 165.367 22.8087C165.74 22.8625 166.118 22.8895 166.495 22.8895C168.491 22.8802 170.423 22.1743 171.961 20.8916V22.3941H174.936ZM169.638 19.1682C168.283 20.2537 166.538 20.3836 165.359 20.1421C164.37 19.9394 163.714 19.2764 163.558 18.3196C163.376 17.2022 163.939 16.0563 164.957 15.4719C165.323 15.2654 165.721 15.1236 166.134 15.0527L171.675 14.3477C171.598 16.4948 170.895 18.1624 169.638 19.1682Z" fill="#014C37"/>
<path d="M178.509 6.04964H177.57V8.65698H177.044V6.04964H176.102V5.67603H178.512L178.509 6.04964Z" fill="#014C37"/>
<path d="M182 8.65698H181.514V6.02686L180.761 8.65698H180.122L179.369 6.028V8.65698H178.882V5.67603H179.735L180.261 7.48829C180.342 7.773 180.402 8.06355 180.439 8.3574C180.474 8.06767 180.534 7.78149 180.617 7.50196L181.148 5.67944H182V8.65698Z" fill="#014C37"/>
</svg>
