<svg width="122" height="23" viewBox="0 0 122 23" fill="none" xmlns="http://www.w3.org/2000/svg">
<path d="M98.2128 0.472656H95.9654V3.86664H93.6885V5.39374H95.9654V10.8974C95.9654 12.9224 97.2518 14.5877 99.1708 15.0427C99.3976 15.0907 99.6274 15.122 99.8587 15.1367C99.9207 15.1443 99.9782 15.1481 100.038 15.1527C100.098 15.1573 100.145 15.1596 100.198 15.1672H100.413V12.888L100.027 12.8659C99.9998 12.8651 99.9722 12.8625 99.9449 12.8582C99.9198 12.8544 99.8946 12.8519 99.8693 12.8506C99.3623 12.7826 98.9612 12.607 98.6782 12.3314C98.3755 11.9969 98.2136 11.5449 98.2136 11.0242V5.39756H100.921V3.87046H98.2128V0.472656Z" fill="#014C37"/>
<path d="M104.317 2.88535C105.107 2.88535 105.748 2.2454 105.748 1.45598C105.748 0.666562 105.107 0.0266113 104.317 0.0266113C103.527 0.0266113 102.886 0.666562 102.886 1.45598C102.886 2.2454 103.527 2.88535 104.317 2.88535Z" fill="#014C37"/>
<path d="M105.441 3.80493H103.193V15.1719H105.441V3.80493Z" fill="#014C37"/>
<path d="M33.9626 1.28699e-05C33.578 -0.00141069 33.2086 0.151056 32.9353 0.423997C32.6619 0.696938 32.507 1.06809 32.5044 1.45611C32.5044 1.84634 32.658 2.22058 32.9315 2.49652C33.2049 2.77245 33.5758 2.92747 33.9626 2.92747C34.3493 2.92747 34.7202 2.77245 34.9936 2.49652C35.2671 2.22058 35.4207 1.84634 35.4207 1.45611C35.4183 1.06803 35.2634 0.696757 34.9901 0.423773C34.7167 0.150788 34.3472 -0.00161257 33.9626 1.28699e-05Z" fill="#014C37"/>
<path d="M35.1137 3.83911H32.8125V15.0908H35.1137V3.83911Z" fill="#014C37"/>
<path d="M47.7103 8.53589C47.7097 8.23097 47.6775 7.92695 47.6142 7.62879C47.2359 5.91157 46.1515 4.56237 44.6283 3.92862C43.0763 3.28342 41.2072 3.65527 39.9541 4.85252V3.83929H37.7173V15.0917H39.9874V14.584C39.9874 13.9289 39.9861 13.2737 39.9836 12.6186V12.6102C39.9836 11.3297 39.9768 10.0065 39.9874 8.68708C39.9874 6.5415 41.3366 5.38319 42.6064 5.38319H42.6351C43.3738 5.37698 44.0852 5.66508 44.6147 6.18492C45.1338 6.69879 45.4554 7.94109 45.4554 8.79856V15.0925H47.7119V11.5733C47.7156 10.5921 47.7179 9.54455 47.7103 8.53589Z" fill="#014C37"/>
<path d="M93.015 8.53589C93.0144 8.23097 92.9822 7.92695 92.9189 7.62879C92.5406 5.91157 91.4562 4.56237 89.933 3.92862C88.381 3.28342 86.5119 3.65527 85.2611 4.85252V3.83929H83.022V15.0917H85.2921V14.584C85.2921 13.9289 85.2908 13.2737 85.2883 12.6186C85.2883 11.3374 85.2815 10.0134 85.2921 8.68708C85.2921 6.5415 86.6413 5.38319 87.9111 5.38319H87.9398C88.6785 5.37698 89.3899 5.66508 89.9194 6.18492C90.4385 6.69879 90.7601 7.94109 90.7601 8.79856V15.0925H93.0166V11.5733C93.0203 10.5921 93.0226 9.54455 93.015 8.53589Z" fill="#014C37"/>
<path d="M20.5602 4.58672C18.5276 3.28028 15.5977 3.05962 13.2685 4.04078L13.1929 4.07285V20.5068H15.4925V15.042C17.5227 15.3566 19.6135 14.7939 21.0921 13.5317C21.7416 12.9862 22.2598 12.299 22.6077 11.5219C22.9555 10.7448 23.124 9.89821 23.1004 9.04587C23.0497 7.18967 22.147 5.60683 20.5602 4.58672ZM19.5825 11.9405C18.6321 12.9239 16.8795 13.8226 15.4963 13.5653V4.912C17.3192 4.68293 19.3691 5.81833 20.2703 7.55694C21.0566 9.07717 20.8091 10.6745 19.5825 11.9405Z" fill="#014C37"/>
<path d="M26.9852 5.2371V3.83904H24.6924V15.0419H26.986V14.7991C26.986 14.2177 26.986 13.6344 26.986 13.049V12.9726C26.9822 11.7181 26.9799 10.5873 26.986 9.44733V8.73493C27.0684 7.14598 27.9016 6.1274 29.393 5.78915C29.7631 5.70058 30.6143 5.67156 30.6507 5.6708H30.7702V3.63746H30.6227C29.0669 3.60615 27.9674 3.86042 26.9852 5.2371Z" fill="#014C37"/>
<path d="M70.0023 11.7771C69.8805 9.79874 67.8079 9.09856 65.9766 8.48161L65.7678 8.40526L65.7542 8.40068C65.6482 8.36479 65.5438 8.3289 65.4341 8.28843L65.4197 8.28385C63.391 7.48365 63.2003 6.82318 63.1799 6.26731C63.1794 6.03637 63.2694 5.8146 63.4303 5.65036C63.7201 5.3312 64.2143 5.12886 64.7523 5.10977C66.5427 5.04487 67.3372 6.16881 67.6883 7.12173L67.7186 7.20266H69.9811L69.9312 6.99116C69.7413 6.17187 68.8377 3.55518 65.1026 3.55518C65.0043 3.55518 64.9044 3.55518 64.8 3.56052C63.5771 3.60404 62.6312 3.97971 61.9888 4.6776C61.1564 5.59386 61.1564 6.71933 61.1769 7.04461C61.2889 8.84659 62.8696 9.54142 64.9263 10.2615L64.9687 10.2737C64.9982 10.2813 65.0497 10.3004 65.0807 10.3118L65.1125 10.3233C65.1647 10.3439 65.2169 10.363 65.2638 10.3798C66.7311 10.941 68.0379 11.5251 67.9191 12.5307C67.9191 12.5483 67.9153 12.5674 67.9138 12.5895C67.8866 12.8949 67.823 13.6188 66.2256 13.8463H66.128C65.6626 13.8631 64.243 13.9128 63.3206 11.7466L63.2888 11.6702H60.915L61.0664 12.152C61.3595 13.0544 61.9289 13.8396 62.6925 14.3946C63.5469 15.013 64.5941 15.3269 65.8064 15.3269C65.8919 15.3269 65.9782 15.3269 66.0659 15.3215L66.2755 15.3139C69.9758 15.0772 70.028 12.3261 70.0008 11.7756L70.0023 11.7771Z" fill="#014C37"/>
<path d="M3.17816 2.18389C3.62689 1.83648 4.2315 1.63642 4.88075 1.61886H5.03663C7.64727 1.61886 8.67866 3.47277 9.06382 4.59671L9.09182 4.67994H11.6457L11.6079 4.50662C11.3657 3.41779 10.1701 -0.124326 4.97761 0.00929599C3.39458 0.0512913 2.17175 0.520112 1.34542 1.40354C0.273171 2.55803 0.260307 3.99275 0.282251 4.4043C0.402567 6.68885 2.45929 7.61122 5.13652 8.57482L5.17208 8.58551C5.23185 8.60281 5.2907 8.6232 5.3484 8.64659L5.39531 8.66416C5.4619 8.69088 5.52925 8.71684 5.59811 8.74051C8.63931 9.93547 9.2303 10.7456 9.29689 11.9093C9.37785 13.302 7.96811 13.7486 6.77327 13.8777H6.64085C4.88756 13.925 3.58452 12.9943 2.76349 11.1136L2.73095 11.0373H0L0.0582663 11.2259C0.426745 12.3974 1.15434 13.4206 2.13618 14.148C3.25837 14.9764 4.64844 15.3964 6.26779 15.3964C6.35179 15.3964 6.43654 15.3964 6.52205 15.3964L6.799 15.3888C11.5662 15.1276 11.6676 11.6214 11.6419 10.9212C11.5133 8.41066 8.80427 7.4692 6.41459 6.63845L6.12553 6.53537C5.97949 6.48422 5.83571 6.43306 5.68891 6.37808L5.65789 6.36739C3.08812 5.32591 2.54404 4.43026 2.5168 3.41016C2.5047 2.95737 2.73852 2.52138 3.17816 2.18389Z" fill="#014C37"/>
<path d="M56.4913 3.6559C56.0524 3.64063 55.6022 3.60627 55.161 3.57267C54.9302 3.55511 54.6994 3.53678 54.4663 3.52151L53.9033 3.51235H53.8019C51.9102 3.57954 50.2386 4.55765 49.544 6.00535C48.8781 7.39196 49.2337 8.90684 50.5201 10.1575C50.7017 10.3347 51.0649 10.6615 51.525 11.0738L51.5394 11.086C53.3805 12.7399 57.2109 16.1797 57.4621 17.338C57.5024 17.5041 57.5249 17.6741 57.5295 17.845C57.5295 19.1537 56.0766 20.3387 54.4217 20.3807C52.8107 20.3342 51.4493 19.1728 51.4493 17.845C51.4542 17.6743 51.477 17.5046 51.5175 17.3388C51.6166 16.8806 52.3718 16.069 53.1724 15.2069L53.2753 15.0962L51.7619 13.634L51.6506 13.7394C51.2594 14.1105 50.8107 14.5411 50.4497 14.9191C49.2239 16.1171 48.8372 17.635 49.3904 19.0835C50.0177 20.7312 51.6847 21.9017 53.6355 22.0613H53.6453C53.8307 22.0858 54.0237 22.1018 54.2219 22.1102V22.1186H54.4081H54.4262L54.5549 22.1148H54.5821C54.7947 22.1064 55.0044 22.0896 55.2034 22.0636C57.1708 21.9002 58.9324 20.6342 59.587 18.9155C60.1507 17.4365 59.7845 15.9155 58.5843 14.7427C58.0365 14.17 57.3252 13.4523 56.6381 12.7574L56.6108 12.7299C56.1727 12.2879 55.7595 11.871 55.4001 11.5022L55.3872 11.4884C55.2488 11.3441 55.1345 11.2242 55.0475 11.1295C56.2401 10.8241 57.2964 10.1064 58.1038 9.05497C58.8616 8.05055 59.3537 6.86816 59.534 5.61899C59.6914 5.59379 59.814 5.57165 59.8965 5.55638L59.9214 5.5518L59.9926 5.53882L60.1182 5.52736L60.461 3.10767L60.215 3.19395C59.1625 3.56045 57.9805 3.70782 56.4913 3.6559ZM54.5193 9.0397C53.3918 9.3665 52.3899 9.17256 51.7717 8.50522C51.2715 7.97073 51.1247 7.21558 51.3934 6.5887C51.696 5.88547 52.4845 5.45635 53.5507 5.4113C53.6483 5.40672 53.7505 5.40443 53.8534 5.40443C54.5647 5.40443 55.3025 5.50293 56.0199 5.59914C56.4118 5.65106 56.8159 5.70527 57.2071 5.74039C57.0671 7.22092 55.9154 8.63502 54.5193 9.0397Z" fill="#014C37"/>
<path d="M75.4997 3.76878C73.5292 4.27578 71.3658 6.03195 71.2061 9.45495C71.1948 12.1961 72.4577 14.399 74.4214 15.0671L74.4358 15.0724C74.9077 15.2333 75.4019 15.3176 75.9 15.3221H75.9174C76.0097 15.3259 76.1013 15.3282 76.1883 15.3282H76.1936C77.4172 15.3282 78.4887 15.0014 79.3778 14.357C80.1605 13.7869 80.7437 12.9808 81.0433 12.0548L81.1712 11.6578H78.7248L78.6922 11.7342C77.7433 13.8675 76.3162 13.8194 75.8447 13.8026C75.794 13.8026 75.7433 13.795 75.6934 13.7889L75.6495 13.7835C75.5344 13.771 75.4202 13.7514 75.3075 13.7247L75.2696 13.7148L75.2447 13.7079L75.1894 13.6919C74.9703 13.6264 74.765 13.5205 74.5841 13.3796L74.5757 13.3727C73.9704 12.8955 73.6155 12.0396 73.5504 10.8958C74.289 10.8385 77.6586 10.5652 78.8247 10.2582C79.5057 10.0795 79.6374 9.9818 79.9393 9.76572C79.9839 9.73365 80.0339 9.69776 80.0906 9.65882L80.1315 9.63057L80.1436 9.61683L80.161 9.60155C80.6901 9.13026 81.0569 8.50129 81.2083 7.80568C81.3716 7.10847 81.2578 6.37444 80.8912 5.76089C79.8122 4.01541 77.6472 3.21673 75.4997 3.76878ZM78.0642 8.55854C77.818 8.69693 77.5504 8.7922 77.2726 8.84029L73.5058 9.30988C73.5565 7.85913 74.0173 6.7703 74.8762 6.08311C75.4679 5.60894 76.2496 5.34781 77.0774 5.34781C77.318 5.34681 77.558 5.37009 77.794 5.41729C78.4584 5.5532 78.8996 5.99988 79.0048 6.63897C79.1266 7.39336 78.749 8.16302 78.0642 8.55854Z" fill="#014C37"/>
<path d="M117.265 15.0114V9.44586V9.22138V9.19236C117.203 6.49321 116.064 4.50721 114.215 3.87805L114.201 3.87346C113.73 3.71294 113.237 3.62867 112.74 3.62378H112.724C111.386 3.57186 110.226 3.89637 109.272 4.58662C108.49 5.15476 107.907 5.95871 107.608 6.88262L107.506 7.1995H109.949L109.983 7.12772C110.929 5.07606 112.329 5.12569 112.787 5.14249C112.838 5.14249 112.889 5.15012 112.944 5.15623L112.985 5.16158C113.1 5.17341 113.214 5.19305 113.326 5.22037L113.364 5.2303L113.389 5.23717L113.444 5.25244C113.663 5.31754 113.869 5.42346 114.049 5.56473L114.058 5.5716C114.664 6.04653 115.016 6.90018 115.08 8.04017C114.344 8.09743 110.984 8.37078 109.822 8.67697C109.03 8.88542 108.838 9.01675 108.426 9.30537L108.385 9.33362L108.373 9.3466L108.356 9.36111C107.228 10.3621 106.914 12.0083 107.627 13.1911C108.321 14.3425 109.466 15.0877 110.85 15.2893C111.101 15.3254 111.353 15.3435 111.607 15.3435C112.945 15.3373 114.239 14.8641 115.271 14.0043V15.0114H117.265ZM113.713 12.849C112.805 13.5767 111.635 13.6637 110.845 13.5019C110.182 13.3659 109.742 12.9216 109.638 12.2802C109.516 11.5311 109.893 10.763 110.575 10.3713C110.821 10.2328 111.087 10.1378 111.365 10.0903L115.078 9.61766C115.027 11.057 114.556 12.1748 113.713 12.849Z" fill="#014C37"/>
<path d="M119.66 4.05538H119.03V5.80315H118.677V4.05538H118.046V3.80493H119.662L119.66 4.05538Z" fill="#014C37"/>
<path d="M122 5.80315H121.674V4.04011L121.169 5.80315H120.741L120.236 4.04087V5.80315H119.91V3.80493H120.481L120.834 5.01974C120.889 5.2106 120.929 5.40536 120.954 5.60234C120.977 5.40812 121.017 5.21628 121.073 5.02891L121.429 3.80722H122V5.80315Z" fill="#014C37"/>
</svg>
