<svg width="29" height="26" viewBox="0 0 29 26" fill="none" xmlns="http://www.w3.org/2000/svg">
<path d="M26.282 15.2979H23.6911V6.47529L13.4206 15.7389L2.96351 6.44659V21.8216H15.9183V24.4311H1.66803C1.32445 24.4311 0.994943 24.2937 0.751994 24.049C0.509046 23.8043 0.372559 23.4724 0.372559 23.1264V2.25054C0.372559 1.9045 0.509046 1.57264 0.751994 1.32795C0.994943 1.08326 1.32445 0.945801 1.66803 0.945801H24.9866C25.3302 0.945801 25.6597 1.08326 25.9026 1.32795C26.1456 1.57264 26.282 1.9045 26.282 2.25054V15.2979ZM3.62549 3.55528L13.4063 12.2475L23.046 3.55528H3.62549ZM22.3956 25.7359L17.8148 21.1223L19.6479 19.2774L22.3956 22.0461L26.9764 17.4325L28.8082 19.2774L22.3956 25.7359Z" fill="#014C37"/>
</svg>
