<svg width="30" height="27" viewBox="0 0 30 27" fill="none" xmlns="http://www.w3.org/2000/svg">
<path d="M19.1275 3.19594C18.9498 4.06203 18.9498 4.95467 19.1275 5.82077H3.76431L13.7731 14.5641L20.4665 8.63196C21.0312 9.3236 21.7364 9.89975 22.5385 10.3184L13.7877 18.0761L3.08689 8.72908V24.1946H24.2976V10.9392C25.1725 11.1151 26.0741 11.1151 26.949 10.9392V25.507C26.949 25.8551 26.8093 26.1889 26.5607 26.435C26.3121 26.6811 25.9749 26.8194 25.6233 26.8194H1.76122C1.40963 26.8194 1.07244 26.6811 0.823827 26.435C0.575215 26.1889 0.435547 25.8551 0.435547 25.507V4.50835C0.435547 4.16028 0.575215 3.82646 0.823827 3.58033C1.07244 3.33421 1.40963 3.19594 1.76122 3.19594H19.1275ZM25.6233 8.4456C25.101 8.4456 24.5839 8.34376 24.1014 8.14589C23.6189 7.94803 23.1804 7.65801 22.8111 7.29241C22.4418 6.9268 22.1489 6.49276 21.949 6.01507C21.7492 5.53738 21.6463 5.0254 21.6463 4.50835C21.6463 3.99131 21.7492 3.47932 21.949 3.00163C22.1489 2.52394 22.4418 2.08991 22.8111 1.7243C23.1804 1.35869 23.6189 1.06868 24.1014 0.870811C24.5839 0.672946 25.101 0.571106 25.6233 0.571106C26.6781 0.571106 27.6897 0.985922 28.4355 1.7243C29.1813 2.46268 29.6003 3.46413 29.6003 4.50835C29.6003 5.55257 29.1813 6.55403 28.4355 7.29241C27.6897 8.03078 26.6781 8.4456 25.6233 8.4456Z" fill="#014C37"/>
</svg>
