<svg width="129" height="23" viewBox="0 0 129 23" fill="none" xmlns="http://www.w3.org/2000/svg">
<path d="M7.30834 7.9048C4.45042 7.63333 3.28664 6.81391 3.28664 5.07453C3.28664 3.33514 4.72439 2.22415 6.70508 2.22415C8.01716 2.22415 9.01253 2.57605 9.66857 3.26728C10.3171 3.95348 10.6086 4.95388 10.5357 6.24082L10.5257 6.42682H12.5818L12.5868 6.2559C12.6421 4.55673 12.1293 3.09887 11.1038 2.04066C10.0431 0.94726 8.52239 0.369141 6.70508 0.369141C3.56313 0.369141 1.19284 2.44786 1.19284 5.20523C1.19284 7.96261 3.13582 9.57631 6.66486 9.91062C10.0205 10.2525 11.2119 11.0669 11.2119 13.0249C11.2119 14.983 9.55295 16.378 6.98911 16.378C5.486 16.378 4.33731 15.9708 3.57318 15.169C2.80403 14.3621 2.45214 13.1808 2.52503 11.6626L2.53508 11.4791H0.484017L0.473963 11.645C0.355826 13.5578 0.873619 15.1841 1.97205 16.3504C3.1308 17.582 4.86515 18.233 6.9866 18.233C10.6463 18.233 13.3032 16.006 13.3032 12.9395C13.3032 9.87292 11.2848 8.28686 7.30834 7.90731V7.9048Z" fill="#024C37"/>
<path d="M21.4472 5.81348C19.1749 5.81348 17.4833 7.14064 16.7242 8.5432V6.07489H14.9572V22.3251H17.0082V15.8552C17.7145 17.0039 19.2377 18.2305 21.4497 18.2305C24.2372 18.2305 27.2007 16.0537 27.2007 12.022C27.2007 8.48288 24.7274 5.81348 21.4497 5.81348H21.4472ZM21.0777 7.75395C23.8602 7.75395 25.127 9.96588 25.127 12.0195C25.127 14.073 23.8602 16.285 21.0777 16.285C19.1171 16.285 17.0082 14.9503 17.0082 12.0195C17.0082 9.08865 19.1196 7.75395 21.0777 7.75395Z" fill="#024C37"/>
<path d="M33.839 5.81348C32.4037 5.81348 31.2802 6.48711 30.6392 7.71876V6.07489H28.8722V17.9691H30.9233V10.2801C30.9233 8.72921 31.8985 7.64586 33.2961 7.64586C34.4649 7.64586 35.1888 8.53064 35.1888 9.95331V10.1293H37.1443L37.1519 9.96085C37.2097 8.65883 36.8427 7.52521 36.1213 6.77114C35.5306 6.15532 34.7213 5.81599 33.839 5.81599V5.81348Z" fill="#024C37"/>
<path d="M40.613 6.07471H38.562V17.9689H40.613V6.07471Z" fill="#024C37"/>
<path d="M39.5875 1.41504C38.8536 1.41504 38.278 1.99064 38.278 2.7246C38.278 3.45856 38.8536 4.03417 39.5875 4.03417C40.3215 4.03417 40.8946 3.45856 40.8946 2.7246C40.8946 1.99064 40.319 1.41504 39.5875 1.41504Z" fill="#024C37"/>
<path d="M49.2571 5.81348C47.3192 5.81348 45.7909 6.66557 45.0117 8.16114V6.07489H43.2447V17.9691H45.2958V11.1297C45.2958 9.14395 46.7285 7.75646 48.7796 7.75646C50.617 7.75646 51.8059 8.94286 51.8059 10.7828V17.9716H53.8569V10.2826C53.8569 8.06311 52.2784 5.81599 49.2596 5.81599L49.2571 5.81348Z" fill="#024C37"/>
<path d="M65.4797 8.11322C64.6176 6.7006 62.9687 5.83594 61.1036 5.83594C57.8661 5.83594 55.33 8.45758 55.33 11.8056C55.33 15.1537 57.8661 17.7754 61.1036 17.7754C62.8556 17.7754 64.3989 17.0213 65.2837 15.7444V17.5567C65.2837 19.56 63.8283 20.7564 61.3876 20.7564C58.3739 20.7564 57.7907 19.1126 57.6826 18.6099L57.6525 18.4716H55.6341L55.6592 18.6702C55.9056 20.6232 57.7731 22.5913 61.3876 22.5913C65.0021 22.5913 67.3347 20.5729 67.3347 17.4511V6.07473H65.4797V8.11322ZM61.3424 15.8324C59.4447 15.8324 57.4011 14.5731 57.4011 11.8056C57.4011 9.03821 59.4447 7.77892 61.3424 7.77892C63.2401 7.77892 65.2837 8.83462 65.2837 11.8056C65.2837 14.7767 63.1622 15.8324 61.3424 15.8324Z" fill="#024C37"/>
<path d="M73.9002 10.8657C72.2437 10.7275 71.4042 10.172 71.4042 9.21181C71.4042 8.16114 72.1884 7.55789 73.5583 7.55789C74.2948 7.55789 74.8629 7.76149 75.2399 8.16366C75.6195 8.56331 75.7954 9.16405 75.7552 9.89801L75.7451 10.084H77.6202L77.6328 9.92064C77.7158 8.78702 77.394 7.79416 76.7028 7.05266C75.9588 6.25335 74.8428 5.81348 73.5583 5.81348C71.1604 5.81348 69.4185 7.30653 69.4185 9.36514C69.4185 11.4237 70.8914 12.5875 73.4578 12.7861C75.7351 12.962 76.1925 13.5829 76.1925 14.528C76.1925 15.6616 75.0841 16.4861 73.5583 16.4861C72.5931 16.4861 71.8642 16.2322 71.3967 15.7295C70.909 15.2067 70.6979 14.4099 70.7708 13.3642L70.7834 13.1757H68.9082L68.8957 13.3366C68.7775 14.7492 69.142 15.9582 69.9463 16.8354C70.7859 17.7479 72.0351 18.2305 73.5558 18.2305C76.2755 18.2305 78.1757 16.662 78.1757 14.4174C78.1757 12.1728 76.7355 11.092 73.8977 10.8657H73.9002Z" fill="#024C37"/>
<path d="M84.8844 5.81348C81.5816 5.81348 79.0906 8.48288 79.0906 12.022C79.0906 15.5611 81.5539 18.2305 85.0805 18.2305C87.9107 18.2305 89.9065 16.8103 90.4142 14.4325L90.4595 14.2188H88.5215L88.4838 14.3445C88.2526 15.1111 87.5035 16.3981 85.0805 16.3981C82.8409 16.3981 81.4081 15.0508 81.2372 12.7861H90.4947L90.5223 12.6453C90.5475 12.5222 90.5701 12.2256 90.5701 12.022C90.5701 8.48288 88.1269 5.81348 84.8844 5.81348ZM84.8417 7.64586C86.8299 7.64586 88.1847 8.96046 88.3958 11.0844H81.2624C81.4408 9.05597 82.9037 7.64586 84.8417 7.64586Z" fill="#024C37"/>
<path d="M98.254 5.81348C96.3161 5.81348 94.7878 6.66306 94.0086 8.16114V6.07489H92.2416V17.9691H94.2926V11.1297C94.2926 9.14395 95.7254 7.75646 97.7764 7.75646C99.6139 7.75646 100.803 8.94286 100.803 10.7828V17.9716H102.854V10.2826C102.854 8.06311 101.275 5.81599 98.2565 5.81599L98.254 5.81348Z" fill="#024C37"/>
<path d="M108.208 3.13379H106.157V6.07466L104.211 6.09225V7.96737L106.157 7.94977V15.1989C106.157 17.0941 107.346 18.2277 109.339 18.2277C110.638 18.2277 111.365 17.8256 111.616 17.6521L111.712 17.5868L111.35 15.7192L111.121 15.9127C110.847 16.144 110.163 16.3928 109.535 16.3928C108.605 16.3928 108.208 15.9429 108.208 14.8922V7.94977H114.25V17.9663H116.301V6.07466H108.208V3.13379Z" fill="#024C37"/>
<path d="M115.276 1.41504C114.542 1.41504 113.966 1.99064 113.966 2.7246C113.966 3.45856 114.542 4.03417 115.276 4.03417C116.01 4.03417 116.585 3.45856 116.585 2.7246C116.585 1.99064 116.01 1.41504 115.276 1.41504Z" fill="#024C37"/>
<path d="M123.387 5.81348C119.529 5.81348 118.78 8.69402 118.639 9.9332L118.616 10.1293H120.474L120.491 9.97091C120.65 8.4502 121.645 7.64586 123.364 7.64586C125.084 7.64586 126.129 8.60604 126.129 10.2147V10.2851L122.226 10.9562C119.416 11.4288 118.267 12.5272 118.267 14.7442C118.267 16.8304 119.8 18.2305 122.08 18.2305C124.015 18.2305 125.609 17.318 126.411 15.7697V17.9691H128.158V10.3882C128.158 7.56543 126.33 5.81348 123.387 5.81348ZM122.449 16.3981C121.193 16.3981 120.383 15.7069 120.383 14.6361C120.383 13.6382 120.765 12.9042 122.633 12.5674L126.129 11.9717V12.7006C126.129 15.1036 124.234 16.4006 122.452 16.4006L122.449 16.3981Z" fill="#024C37"/>
</svg>
