<svg width="19" height="17" viewBox="0 0 19 17" fill="yellow" xmlns="http://www.w3.org/2000/svg">
    <path d="M13.775 0C16.6611 0 19 2.2973 19 5.51351C19 11.9459 11.875 15.6216 9.5 17C7.125 15.6216 0 11.9459 0 5.51351C0 2.2973 2.375 0 5.225 0C6.992 0 8.55 0.918919 9.5 1.83784C10.45 0.918919 12.008 0 13.775 0ZM10.3873 14.3388C11.2242 13.8279 11.9795 13.3197 12.6863 12.7757C15.5182 10.5979 17.1 8.21789 17.1 5.51351C17.1 3.34486 15.6398 1.83784 13.775 1.83784C12.7528 1.83784 11.647 2.36162 10.8433 3.13719L9.5 4.43654L8.1567 3.13719C7.353 2.36162 6.2472 1.83784 5.225 1.83784C3.382 1.83784 1.9 3.35957 1.9 5.51351C1.9 8.21881 3.4827 10.5979 6.31275 12.7757C7.0205 13.3197 7.77575 13.8279 8.6127 14.3379C8.89675 14.5116 9.17795 14.6779 9.5 14.8635C9.82205 14.6779 10.1032 14.5116 10.3873 14.3388Z" fill="#014C37"/>
</svg>