<svg width="16" height="17" viewBox="0 0 16 17" fill="none" xmlns="http://www.w3.org/2000/svg">
<path d="M1.46334 11.0266V2.26998H0.00390625V0.810547H2.19306C2.38659 0.810547 2.57219 0.887427 2.70904 1.02428C2.84589 1.16112 2.92277 1.34673 2.92277 1.54026V10.2969H11.999L13.4584 4.45913H4.38221V2.9997H14.3939C14.5048 2.9997 14.6143 3.02499 14.714 3.07364C14.8137 3.1223 14.9009 3.19304 14.9692 3.28048C15.0374 3.36793 15.0848 3.46978 15.1078 3.5783C15.1308 3.68681 15.1287 3.79914 15.1017 3.90673L13.2775 11.2039C13.2379 11.3617 13.1468 11.5018 13.0186 11.6018C12.8903 11.7019 12.7323 11.7563 12.5696 11.7563H2.19306C1.99952 11.7563 1.81392 11.6794 1.67707 11.5426C1.54022 11.4057 1.46334 11.2201 1.46334 11.0266ZM2.92277 16.1346C2.53571 16.1346 2.16449 15.9808 1.8908 15.7071C1.6171 15.4334 1.46334 15.0622 1.46334 14.6752C1.46334 14.2881 1.6171 13.9169 1.8908 13.6432C2.16449 13.3695 2.53571 13.2157 2.92277 13.2157C3.30984 13.2157 3.68105 13.3695 3.95475 13.6432C4.22844 13.9169 4.38221 14.2881 4.38221 14.6752C4.38221 15.0622 4.22844 15.4334 3.95475 15.7071C3.68105 15.9808 3.30984 16.1346 2.92277 16.1346ZM11.6794 16.1346C11.2923 16.1346 10.9211 15.9808 10.6474 15.7071C10.3737 15.4334 10.2199 15.0622 10.2199 14.6752C10.2199 14.2881 10.3737 13.9169 10.6474 13.6432C10.9211 13.3695 11.2923 13.2157 11.6794 13.2157C12.0664 13.2157 12.4376 13.3695 12.7113 13.6432C12.985 13.9169 13.1388 14.2881 13.1388 14.6752C13.1388 15.0622 12.985 15.4334 12.7113 15.7071C12.4376 15.9808 12.0664 16.1346 11.6794 16.1346Z" fill="#333333"/>
</svg>
