<svg width="18" height="15" viewBox="0 0 18 15" fill="none" xmlns="http://www.w3.org/2000/svg">
<path d="M12.6165 0.540039C15.0551 0.540039 17.0313 2.41364 17.0313 5.03667C17.0313 10.2827 11.0111 13.2805 9.00442 14.4047C6.9977 13.2805 0.977539 10.2827 0.977539 5.03667C0.977539 2.41364 2.98426 0.540039 5.39232 0.540039C6.88532 0.540039 8.20173 1.28948 9.00442 2.03892C9.80711 1.28948 11.1235 0.540039 12.6165 0.540039ZM9.75413 12.2343C10.4613 11.8176 11.0994 11.4032 11.6966 10.9595C14.0895 9.18331 15.4259 7.24227 15.4259 5.03667C15.4259 3.268 14.1922 2.03892 12.6165 2.03892C11.7528 2.03892 10.8185 2.4661 10.1394 3.09862L9.00442 4.15833L7.86942 3.09862C7.19035 2.4661 6.25602 2.03892 5.39232 2.03892C3.83511 2.03892 2.58292 3.27999 2.58292 5.03667C2.58292 7.24302 3.92019 9.18331 6.3114 10.9595C6.90941 11.4032 7.54754 11.8176 8.25471 12.2335C8.49471 12.3752 8.73231 12.5108 9.00442 12.6622C9.27653 12.5108 9.51413 12.3752 9.75413 12.2343V12.2343Z" fill="#333333"/>
</svg>
