<svg width="17" height="17" viewBox="0 0 17 17" fill="none" xmlns="http://www.w3.org/2000/svg">
<path d="M12.6749 11.6321L16.0596 15.0161L14.9414 16.1343L11.5574 12.7496C10.2983 13.7589 8.73214 14.3079 7.11839 14.3056C3.19227 14.3056 0.00585938 11.1192 0.00585938 7.19309C0.00585938 3.26698 3.19227 0.0805664 7.11839 0.0805664C11.0445 0.0805664 14.2309 3.26698 14.2309 7.19309C14.2332 8.80685 13.6842 10.373 12.6749 11.6321ZM11.0895 11.0457C12.0925 10.0143 12.6526 8.63174 12.6504 7.19309C12.6504 4.13629 10.1744 1.66113 7.11839 1.66113C4.06158 1.66113 1.58642 4.13629 1.58642 7.19309C1.58642 10.2491 4.06158 12.7251 7.11839 12.7251C8.55704 12.7273 9.9396 12.1672 10.971 11.1643L11.0895 11.0457V11.0457Z" fill="#333333"/>
</svg>
