<svg width="13" height="16" viewBox="0 0 13 16" fill="none" xmlns="http://www.w3.org/2000/svg">
<path d="M0.491699 15.4046C0.491699 13.8564 1.10674 12.3715 2.20153 11.2767C3.29632 10.1819 4.78117 9.56688 6.32943 9.56688C7.87769 9.56688 9.36254 10.1819 10.4573 11.2767C11.5521 12.3715 12.1672 13.8564 12.1672 15.4046H10.7077C10.7077 14.2434 10.2464 13.1298 9.42536 12.3087C8.60427 11.4876 7.49063 11.0263 6.32943 11.0263C5.16823 11.0263 4.0546 11.4876 3.23351 12.3087C2.41242 13.1298 1.95113 14.2434 1.95113 15.4046H0.491699ZM6.32943 8.83716C3.91042 8.83716 1.95113 6.87788 1.95113 4.45887C1.95113 2.03986 3.91042 0.0805664 6.32943 0.0805664C8.74844 0.0805664 10.7077 2.03986 10.7077 4.45887C10.7077 6.87788 8.74844 8.83716 6.32943 8.83716ZM6.32943 7.37773C7.94211 7.37773 9.2483 6.07154 9.2483 4.45887C9.2483 2.84619 7.94211 1.54 6.32943 1.54C4.71676 1.54 3.41057 2.84619 3.41057 4.45887C3.41057 6.07154 4.71676 7.37773 6.32943 7.37773Z" fill="#09121F"/>
</svg>
