  <svg
    width="23"
    height="23"
    viewBox="0 0 23 23"
    fill="none"
    xmlns="http://www.w3.org/2000/svg"
  >
    <path
      d="M23 11.4853C23 5.14215 17.8513 0 11.5 0C5.14872 0 0 5.14215 0 11.4853C0 17.218 4.20538 21.9695 9.70313 22.8311V14.8053H6.78321V11.4853H9.70313V8.95498C9.70313 6.07645 11.42 4.48646 14.0468 4.48646C15.305 4.48646 16.6211 4.71078 16.6211 4.71078V7.53725H15.171C13.7424 7.53725 13.2969 8.42259 13.2969 9.33088V11.4853H16.4863L15.9765 14.8053H13.2969V22.8311C18.7946 21.9695 23 17.218 23 11.4853Z"
      fill="#1877F2"
    />
    <path
      d="M15.9765 14.8052L16.4863 11.4853H13.2969V9.33079C13.2969 8.42252 13.7424 7.53718 15.171 7.53718H16.6211V4.71071C16.6211 4.71071 15.305 4.48639 14.0468 4.48639C11.42 4.48639 9.70312 6.07638 9.70312 8.9549V11.4853H6.7832V14.8052H9.70312V22.8311C10.2975 22.9241 10.8983 22.9707 11.5 22.9706C12.1113 22.9706 12.7114 22.9228 13.2969 22.8311V14.8052H15.9765Z"
      fill="white"
    />
  </svg>