<svg
    width="23"
    height="23"
    viewBox="0 0 23 23"
    fill="none"
    xmlns="http://www.w3.org/2000/svg"
>
    <path
      d="M22.5125 11.7623C22.5135 10.9787 22.4473 10.1964 22.3147 9.42407H11.4838V13.853H17.6873C17.5603 14.5604 17.2916 15.2347 16.8974 15.8353C16.5032 16.4359 15.9916 16.9504 15.3934 17.3477V20.2226H19.0958C21.2635 18.2213 22.5125 15.2618 22.5125 11.7623Z"
      fill="#4285F4"
    />
    <path
      d="M11.4848 23C14.5841 23 17.1938 21.981 19.0968 20.2241L15.3945 17.3492C14.364 18.0488 13.0369 18.4481 11.4848 18.4481C8.48912 18.4481 5.94647 16.426 5.03724 13.7013H1.22327V16.664C2.17918 18.5686 3.64497 20.1697 5.45698 21.2885C7.269 22.4074 9.35593 22.9999 11.4848 23Z"
      fill="#34A853"
    />
    <path
      d="M5.03692 13.7015C4.55624 12.2737 4.55624 10.7275 5.03692 9.29968V6.33691H1.22295C0.4188 7.93913 0 9.70744 0 11.5006C0 13.2937 0.4188 15.0621 1.22295 16.6643L5.03692 13.7015Z"
      fill="#FBBC04"
    />
    <path
      d="M11.4848 4.55271C13.1226 4.52591 14.7053 5.14554 15.8905 6.27766L19.1686 2.99546C17.09 1.04064 14.3363 -0.0325931 11.4848 0.000754486C9.35593 0.000851635 7.269 0.593394 5.45698 1.71223C3.64497 2.83106 2.17918 4.43216 1.22327 6.33675L5.03724 9.29952C5.94647 6.57473 8.48912 4.55271 11.4848 4.55271Z"
      fill="#EA4335"
    />
</svg>